<svg id="svg" xmlns="http://www.w3.org/2000/svg" xmlns:xlink="http://www.w3.org/1999/xlink" width="400" height="189.76190476190476" viewBox="0, 0, 400,189.76190476190476" version="1.1"><g id="svgg"><path id="path0" d="M0.000 131.250 L 0.000 189.667 200.000 189.667 L 400.000 189.667 400.000 172.083 C 400.000 155.448,399.984 154.500,399.708 154.500 C 399.548 154.500,397.054 154.758,394.167 155.073 C 369.237 157.792,352.882 156.629,335.250 150.885 C 323.823 147.163,316.580 143.196,291.333 126.835 C 257.170 104.694,243.939 101.286,220.117 108.488 C 210.990 111.247,205.439 113.810,182.250 125.969 C 174.671 129.943,168.670 132.922,163.359 135.345 C 161.549 136.172,159.746 137.117,159.247 137.502 C 158.244 138.276,155.917 139.179,153.636 139.680 C 152.840 139.855,151.228 140.304,150.053 140.677 C 128.909 147.400,112.699 147.941,92.833 142.588 C 91.688 142.279,90.337 141.974,89.833 141.911 C 88.785 141.778,88.508 141.656,87.583 140.913 C 86.697 140.201,86.338 140.026,84.996 139.654 C 83.389 139.209,80.526 137.936,75.995 135.654 C 61.054 128.125,44.244 115.334,24.669 96.598 C 23.067 95.064,21.304 93.519,20.753 93.166 C 19.128 92.125,19.016 92.021,18.577 91.154 C 18.305 90.617,17.870 90.120,17.341 89.739 C 16.891 89.417,16.387 88.939,16.220 88.679 C 15.839 88.084,1.247 73.323,0.769 73.048 C 0.575 72.936,0.323 72.842,0.208 72.839 C 0.042 72.835,0.000 84.625,0.000 131.250 " stroke="none" fill="#fbd333" fill-rule="evenodd"></path><path id="path1" d="M7.917 1.530 C 7.367 1.616,5.379 1.738,3.500 1.801 L 0.083 1.917 0.034 11.833 C -0.020 22.871,-0.030 22.755,1.007 23.441 C 1.370 23.681,1.678 23.943,1.692 24.022 C 1.775 24.505,1.679 24.596,0.917 24.758 C 0.087 24.934,0.083 24.938,0.083 25.592 L 0.083 26.250 3.083 26.354 C 4.733 26.412,7.883 26.468,10.083 26.480 C 16.010 26.512,16.882 27.047,17.333 30.925 C 17.993 36.609,17.389 42.315,15.915 44.318 C 14.399 46.377,14.722 46.301,6.000 46.651 C 2.572 46.788,0.658 47.028,0.208 47.379 C -0.113 47.629,-0.055 48.786,0.288 48.978 C 0.561 49.131,0.561 49.156,0.287 49.459 C 0.018 49.757,0.000 50.472,0.040 59.587 L 0.083 69.395 0.833 69.833 C 1.887 70.450,1.888 70.993,0.834 71.250 C 0.101 71.428,-0.297 71.932,0.196 72.057 C 0.317 72.088,0.904 72.268,1.500 72.459 C 2.475 72.770,3.129 72.813,8.018 72.894 C 16.800 73.039,17.055 73.343,16.979 83.585 C 16.947 87.948,17.030 88.833,17.476 88.833 C 17.805 88.833,19.053 90.115,19.411 90.822 C 20.044 92.072,22.354 93.393,24.682 93.836 C 26.618 94.205,39.693 94.334,41.083 93.998 C 41.450 93.909,43.625 93.758,45.917 93.663 C 55.088 93.280,55.087 93.280,56.957 90.500 C 58.023 88.915,58.275 88.885,59.074 90.249 C 59.787 91.467,62.226 92.494,65.000 92.745 C 65.688 92.808,66.761 92.965,67.386 93.096 C 69.035 93.440,84.550 93.437,86.841 93.091 C 87.716 92.960,89.691 92.798,91.230 92.733 C 93.296 92.646,94.089 92.554,94.264 92.379 C 95.537 91.106,92.126 90.694,86.499 91.442 C 84.204 91.746,68.430 91.683,67.250 91.364 C 66.883 91.265,65.908 91.116,65.083 91.032 C 62.542 90.774,60.337 89.642,60.104 88.477 C 59.873 87.323,59.989 74.016,60.235 73.427 C 60.549 72.675,60.864 72.591,64.360 72.333 C 65.711 72.233,67.275 71.999,68.204 71.758 C 71.031 71.023,71.767 70.955,78.038 70.851 L 84.160 70.750 84.587 70.323 C 85.551 69.358,85.005 69.172,81.198 69.169 C 78.447 69.167,78.270 69.147,77.407 68.738 C 76.518 68.318,76.465 68.313,74.709 68.486 C 73.723 68.584,70.779 68.738,68.167 68.830 C 65.309 68.930,63.151 69.080,62.750 69.205 C 61.624 69.557,48.344 69.498,46.417 69.132 C 45.592 68.975,44.637 68.803,44.296 68.750 C 43.468 68.621,41.466 67.578,41.161 67.118 C 40.698 66.420,40.714 51.399,41.178 50.905 C 41.550 50.509,42.493 50.299,44.917 50.075 C 45.558 50.015,46.683 49.777,47.417 49.546 C 49.801 48.794,50.926 48.679,56.000 48.670 C 61.434 48.661,61.440 48.659,61.814 47.454 C 62.132 46.430,61.938 46.183,61.144 46.599 C 60.323 47.029,56.213 47.145,55.208 46.767 C 54.819 46.620,54.198 46.387,53.829 46.249 C 52.735 45.840,43.682 45.696,41.941 46.060 C 40.440 46.373,27.869 46.465,26.167 46.175 C 20.492 45.208,20.012 44.872,19.782 41.701 C 19.690 40.437,19.686 37.240,19.772 33.767 L 19.917 27.952 20.333 27.649 C 20.629 27.434,21.404 27.272,23.000 27.090 C 24.238 26.949,25.850 26.648,26.583 26.421 C 28.822 25.728,29.958 25.666,43.199 25.523 C 56.790 25.376,56.833 25.373,56.833 24.600 C 56.833 23.931,56.642 23.917,47.501 23.917 C 36.690 23.917,37.058 24.045,39.407 21.086 L 39.897 20.468 39.907 11.322 L 39.917 2.177 39.537 1.797 L 39.158 1.417 24.037 1.395 C 15.344 1.383,8.492 1.440,7.917 1.530 M31.336 3.312 C 38.964 3.479,39.083 3.623,39.083 12.667 L 39.083 17.250 38.611 18.625 C 38.130 20.028,37.101 21.634,36.262 22.294 C 35.398 22.974,34.781 23.046,27.417 23.328 C 25.400 23.406,23.371 23.554,22.908 23.658 C 21.293 24.020,7.939 23.803,5.799 23.380 C 1.239 22.477,1.334 22.691,1.334 13.367 C 1.333 4.156,1.065 4.968,4.208 4.661 C 5.239 4.560,6.871 4.261,7.833 3.995 C 11.551 2.971,13.337 2.919,31.336 3.312 M18.333 26.149 C 18.333 26.485,18.051 26.664,17.708 26.545 C 17.304 26.404,17.471 25.833,17.917 25.833 C 18.214 25.833,18.333 25.923,18.333 26.149 M18.842 45.268 C 19.158 45.599,19.698 46.050,20.042 46.270 C 21.330 47.096,20.782 47.552,18.500 47.552 C 16.153 47.552,15.833 47.204,16.837 45.745 C 17.693 44.501,18.033 44.420,18.842 45.268 M45.411 47.825 C 45.596 48.123,44.862 48.329,43.050 48.488 C 41.598 48.616,41.028 48.747,40.185 49.145 C 38.913 49.747,38.167 49.599,38.167 48.746 C 38.167 48.236,38.863 48.006,40.483 47.980 C 41.180 47.969,41.975 47.903,42.250 47.833 C 42.983 47.647,45.298 47.641,45.411 47.825 M35.986 49.597 C 38.025 50.413,38.352 51.542,38.457 58.123 L 38.540 63.330 38.108 64.718 C 37.543 66.530,36.371 68.202,35.250 68.794 C 34.686 69.092,29.867 69.472,26.333 69.497 C 25.188 69.505,23.650 69.620,22.917 69.753 C 21.898 69.937,19.971 69.994,14.750 69.997 C 7.829 70.000,7.591 69.985,4.250 69.320 C 3.076 69.086,1.500 68.197,1.039 67.508 L 0.654 66.932 0.702 59.368 L 0.750 51.804 1.193 51.423 C 1.657 51.024,2.067 50.936,4.680 50.670 C 5.558 50.581,6.758 50.352,7.347 50.160 C 10.327 49.189,10.710 49.168,23.524 49.248 C 33.970 49.314,35.376 49.353,35.986 49.597 M39.271 67.628 C 39.598 67.840,40.667 69.326,40.667 69.567 C 40.667 69.896,40.287 70.000,39.082 70.000 C 37.544 70.000,37.203 69.603,37.847 68.561 C 38.355 67.740,38.897 67.384,39.271 67.628 M58.332 71.581 C 58.609 71.915,58.424 72.333,58.000 72.333 C 57.622 72.333,57.411 71.973,57.560 71.583 C 57.683 71.263,58.067 71.262,58.332 71.581 M54.300 71.935 C 55.080 72.091,56.223 73.178,56.683 74.202 C 57.740 76.555,57.306 87.063,56.071 89.020 C 54.434 91.613,54.353 91.636,46.167 91.912 C 44.471 91.969,42.446 92.122,41.667 92.252 C 40.036 92.524,27.999 92.705,26.697 92.477 C 26.268 92.402,25.126 92.202,24.159 92.033 C 21.529 91.574,19.833 90.623,19.604 89.477 C 19.361 88.266,19.490 74.670,19.748 74.171 C 20.027 73.630,20.716 73.439,23.049 73.254 C 23.764 73.198,25.002 72.959,25.799 72.723 C 26.597 72.488,27.512 72.223,27.833 72.136 C 29.290 71.739,52.440 71.563,54.300 71.935 M18.173 72.178 C 18.468 72.729,17.964 73.368,17.287 73.301 C 16.614 73.236,16.138 72.520,16.487 72.099 C 16.823 71.694,17.941 71.746,18.173 72.178 M110.417 104.016 C 101.645 104.928,94.341 107.344,87.250 111.678 C 85.712 112.619,85.421 112.696,79.526 113.737 C 73.433 114.812,73.765 114.422,73.914 120.333 C 74.226 132.689,74.606 133.300,83.600 135.914 C 84.436 136.157,84.554 136.259,85.277 137.357 C 86.201 138.760,88.909 140.915,89.971 141.092 C 90.308 141.148,91.417 141.376,92.437 141.597 C 95.161 142.189,95.293 142.172,97.277 140.976 C 99.280 139.768,100.564 138.523,101.465 136.917 C 102.431 135.195,100.481 135.421,120.167 134.750 C 124.154 134.614,129.367 134.429,131.750 134.338 C 144.261 133.863,143.181 133.773,144.228 135.376 C 144.941 136.466,145.418 136.966,146.750 138.012 C 147.368 138.498,147.875 139.045,147.976 139.337 C 148.200 139.979,148.428 139.978,151.500 139.322 C 157.156 138.113,159.335 136.951,160.600 134.464 C 161.122 133.438,161.290 133.366,163.435 133.243 C 167.306 133.020,167.501 132.844,167.496 129.588 C 167.480 118.869,166.961 117.589,161.688 115.251 C 157.232 113.276,153.176 112.325,147.971 112.035 L 145.525 111.899 141.554 109.954 C 131.018 104.794,121.105 102.904,110.417 104.016 M113.728 107.542 C 113.881 107.786,114.002 108.686,114.076 110.122 C 114.212 112.786,114.022 113.165,112.549 113.169 C 112.110 113.170,108.768 113.280,105.124 113.414 C 97.918 113.679,98.076 113.692,96.925 112.730 C 95.354 111.417,95.586 110.963,98.323 109.992 C 104.230 107.898,113.069 106.492,113.728 107.542 M122.672 107.423 C 129.866 108.310,139.582 111.641,136.708 112.235 C 136.296 112.320,124.244 112.778,119.802 112.877 C 117.434 112.930,117.355 112.818,117.341 109.387 C 117.330 106.929,117.666 106.806,122.672 107.423 M92.386 113.192 C 92.586 113.298,93.561 114.121,94.553 115.022 C 96.814 117.076,96.664 117.035,101.089 116.839 C 103.011 116.754,106.656 116.632,109.189 116.569 L 113.795 116.453 114.056 116.851 C 114.266 117.174,114.349 118.207,114.489 122.250 C 114.584 125.000,114.707 127.940,114.762 128.784 C 114.960 131.793,115.286 131.622,108.882 131.865 C 102.318 132.114,102.963 132.322,102.158 129.695 C 99.387 120.663,86.027 121.322,84.089 130.586 C 83.703 132.430,83.572 132.470,81.008 131.545 C 77.997 130.458,77.765 130.063,77.591 125.737 C 77.452 122.268,77.417 122.326,79.779 122.184 C 81.863 122.058,82.001 121.960,81.997 120.605 C 81.993 119.000,81.679 118.779,79.622 118.937 C 77.960 119.065,77.500 118.898,77.500 118.167 C 77.500 117.459,77.701 117.394,82.594 116.504 L 86.985 115.706 88.618 114.703 C 91.499 112.933,91.724 112.843,92.386 113.192 M150.504 115.509 C 157.342 116.357,163.297 118.992,164.000 121.481 C 164.334 122.663,164.424 129.384,164.109 129.646 C 163.005 130.561,161.662 129.965,161.277 128.389 C 158.888 118.613,144.862 118.889,142.934 128.750 C 142.526 130.836,142.903 130.670,138.167 130.842 C 118.176 131.566,118.814 131.555,118.448 131.189 C 118.129 130.870,118.097 130.474,117.858 123.919 L 117.606 116.987 117.964 116.629 C 118.358 116.235,117.192 116.301,136.000 115.604 C 143.716 115.318,148.704 115.285,150.504 115.509 M123.121 117.453 C 122.149 117.600,121.763 119.821,122.599 120.459 C 123.065 120.814,127.766 120.613,128.201 120.219 C 128.601 119.857,128.628 117.985,128.238 117.595 C 127.984 117.341,124.505 117.244,123.121 117.453 M153.256 124.515 C 160.375 125.831,159.409 136.417,152.170 136.417 C 144.170 136.417,144.100 125.289,152.094 124.354 C 152.192 124.343,152.715 124.415,153.256 124.515 M95.402 126.842 C 98.614 128.044,100.167 131.812,98.751 134.969 C 96.648 139.655,89.860 139.646,87.739 134.954 C 85.562 130.137,90.432 124.983,95.402 126.842 " stroke="none" fill="#040404" fill-rule="evenodd"></path></g></svg>