<svg id="svg" xmlns="http://www.w3.org/2000/svg" xmlns:xlink="http://www.w3.org/1999/xlink" width="400" height="153.80952380952382" viewBox="0, 0, 400,153.80952380952382" version="1.1"><g id="svgg"><path id="path0" d="M395.833 3.074 C 393.679 3.743,390.417 4.758,388.583 5.328 C 385.156 6.394,383.619 6.872,381.375 7.567 C 380.665 7.787,378.958 8.316,377.583 8.742 C 376.208 9.168,374.221 9.782,373.167 10.107 C 372.113 10.432,370.950 10.798,370.583 10.922 C 370.217 11.046,369.017 11.421,367.917 11.755 C 366.817 12.090,364.117 12.924,361.917 13.609 C 359.717 14.295,356.942 15.155,355.750 15.521 C 354.558 15.887,353.396 16.255,353.167 16.338 C 352.938 16.421,351.625 16.822,350.250 17.230 C 347.906 17.926,346.554 18.334,339.417 20.503 C 336.815 21.293,322.521 25.507,321.750 25.711 C 321.567 25.759,319.579 26.327,317.333 26.973 C 312.395 28.392,303.875 30.799,301.583 31.422 C 300.667 31.671,299.317 32.044,298.583 32.250 C 296.720 32.774,295.655 33.064,292.500 33.906 C 290.987 34.309,289.000 34.840,288.083 35.085 C 282.899 36.473,262.202 41.714,258.250 42.640 C 257.425 42.834,255.475 43.294,253.917 43.663 C 250.896 44.378,248.098 45.030,246.333 45.430 C 245.737 45.565,244.950 45.745,244.583 45.830 C 244.217 45.916,243.392 46.103,242.750 46.247 C 242.108 46.391,241.283 46.578,240.917 46.664 C 238.961 47.119,237.666 47.403,233.333 48.330 C 230.721 48.889,227.758 49.528,226.750 49.750 C 225.742 49.972,223.004 50.536,220.667 51.003 C 218.329 51.469,215.554 52.029,214.500 52.247 C 212.722 52.614,211.594 52.828,205.750 53.908 C 204.558 54.128,202.758 54.464,201.750 54.655 C 200.742 54.846,199.054 55.147,198.000 55.324 C 193.289 56.114,189.009 56.842,188.167 56.997 C 187.662 57.089,185.262 57.466,182.833 57.835 C 180.404 58.203,177.967 58.580,177.417 58.671 C 175.216 59.038,161.360 60.970,158.333 61.333 C 157.646 61.415,155.321 61.707,153.167 61.982 C 151.012 62.256,148.537 62.560,147.667 62.657 C 146.796 62.753,145.446 62.908,144.667 63.001 C 141.733 63.352,138.864 63.677,137.333 63.832 C 136.462 63.920,134.662 64.110,133.333 64.253 C 132.004 64.396,130.204 64.584,129.333 64.671 C 123.677 65.236,122.408 65.361,120.917 65.499 C 120.000 65.584,118.050 65.768,116.583 65.909 C 115.117 66.050,113.054 66.237,112.000 66.323 C 110.946 66.410,108.283 66.632,106.083 66.817 C 98.021 67.494,89.299 68.137,81.000 68.667 C 79.487 68.764,77.162 68.916,75.833 69.006 C 73.277 69.180,69.319 69.412,64.500 69.670 C 62.896 69.756,59.446 69.942,56.833 70.083 C 48.543 70.531,37.226 71.082,31.167 71.333 C 29.104 71.419,24.904 71.602,21.833 71.741 C 18.762 71.880,14.412 72.071,12.167 72.166 C 9.921 72.260,6.546 72.410,4.667 72.499 C 2.787 72.587,0.969 72.661,0.625 72.663 L 0.000 72.667 -0.000 112.607 L -0.000 152.548 1.625 152.438 C 2.519 152.378,5.087 152.256,7.333 152.167 C 9.579 152.078,12.954 151.932,14.833 151.842 C 16.712 151.753,20.162 151.599,22.500 151.500 C 26.423 151.335,31.455 151.110,41.250 150.660 C 59.506 149.823,86.642 148.199,96.917 147.329 C 98.797 147.170,104.597 146.693,109.083 146.328 C 110.183 146.239,111.908 146.090,112.917 145.999 C 117.322 145.599,118.569 145.485,121.083 145.251 C 126.506 144.747,127.647 144.635,130.532 144.318 C 132.153 144.140,134.216 143.923,135.115 143.836 C 136.014 143.749,137.725 143.562,138.917 143.419 C 140.108 143.277,141.721 143.091,142.500 143.006 C 143.279 142.921,144.892 142.733,146.083 142.589 C 147.275 142.445,148.887 142.258,149.667 142.173 C 150.938 142.035,157.396 141.219,162.250 140.585 C 169.167 139.680,182.535 137.669,190.083 136.398 C 192.558 135.981,194.996 135.576,195.500 135.497 C 197.443 135.193,201.327 134.512,203.000 134.181 C 203.963 133.991,205.200 133.753,205.750 133.653 C 206.300 133.553,207.275 133.369,207.917 133.244 C 208.558 133.120,210.133 132.822,211.417 132.582 C 212.700 132.343,215.400 131.811,217.417 131.402 C 219.433 130.992,222.208 130.434,223.583 130.162 C 224.958 129.890,226.383 129.596,226.750 129.509 C 227.117 129.423,227.979 129.231,228.667 129.083 C 229.354 128.936,230.217 128.748,230.583 128.667 C 230.950 128.585,231.813 128.398,232.500 128.250 C 233.188 128.102,234.050 127.915,234.417 127.833 C 234.783 127.752,235.608 127.572,236.250 127.433 C 236.892 127.294,238.279 126.985,239.333 126.747 C 240.387 126.509,241.550 126.248,241.917 126.167 C 242.283 126.086,243.108 125.897,243.750 125.747 C 244.392 125.597,245.254 125.399,245.667 125.309 C 247.422 124.922,250.191 124.277,253.083 123.583 C 254.458 123.252,256.371 122.795,257.333 122.565 C 259.524 122.043,277.221 117.627,279.250 117.096 C 284.575 115.702,288.469 114.669,290.833 114.022 C 294.882 112.916,300.804 111.302,302.000 110.980 C 304.768 110.234,308.161 109.296,309.500 108.907 C 310.279 108.680,311.179 108.420,311.500 108.328 C 321.491 105.477,329.069 103.257,337.042 100.845 C 343.509 98.888,345.342 98.335,347.000 97.839 C 348.836 97.290,349.579 97.060,358.333 94.334 C 361.313 93.407,364.613 92.384,365.667 92.061 C 366.721 91.738,367.771 91.410,368.000 91.331 C 368.229 91.252,369.392 90.887,370.583 90.521 C 371.775 90.155,374.550 89.295,376.750 88.610 C 381.634 87.090,387.260 85.349,389.833 84.561 C 390.887 84.238,391.938 83.910,392.167 83.831 C 392.396 83.752,393.596 83.375,394.833 82.994 C 396.071 82.613,397.644 82.121,398.329 81.900 C 399.014 81.680,399.670 81.500,399.787 81.500 C 399.959 81.500,400.000 73.883,400.000 41.667 C 400.000 19.758,399.944 1.838,399.875 1.844 C 399.806 1.851,397.988 2.404,395.833 3.074 " stroke="none" fill="#fbd334" fill-rule="evenodd"></path></g></svg>