<svg id="svg" xmlns="http://www.w3.org/2000/svg" xmlns:xlink="http://www.w3.org/1999/xlink" width="400" height="315.0837988826816" viewBox="0, 0, 400,315.0837988826816" version="1.1"><g id="svgg"><path id="path0" d="M0.041 204.125 L 0.083 253.083 4.800 253.283 C 36.834 254.642,50.251 255.293,76.333 256.754 C 106.735 258.456,143.809 261.774,171.252 265.248 C 188.200 267.394,210.346 270.766,225.000 273.433 C 251.971 278.340,284.536 285.288,310.083 291.587 C 337.412 298.324,340.769 299.181,365.292 305.678 C 369.073 306.680,375.298 308.330,379.125 309.344 C 393.729 313.213,396.783 314.027,397.833 314.328 C 398.429 314.499,399.160 314.688,399.458 314.749 L 400.000 314.860 400.000 275.124 L 400.000 235.388 391.125 235.277 C 386.244 235.217,377.488 235.164,371.667 235.160 C 365.846 235.156,355.421 235.084,348.500 234.999 C 316.167 234.603,316.267 234.603,315.152 234.826 C 313.057 235.245,307.872 234.964,299.833 233.996 C 298.321 233.814,293.183 233.365,288.417 232.997 C 225.327 228.135,186.767 220.892,129.500 203.147 C 98.665 193.593,69.695 182.896,10.833 159.331 C 4.116 156.641,0.306 155.167,0.075 155.167 C 0.033 155.167,0.018 177.198,0.041 204.125 " stroke="none" fill="#fbd334" fill-rule="evenodd"></path><path id="path1" d="M341.493 2.258 C 341.041 2.803,341.627 3.010,344.100 3.179 C 348.054 3.449,349.684 3.644,351.583 4.072 C 352.592 4.300,354.242 4.568,355.250 4.669 C 358.575 5.000,358.417 4.583,358.417 12.993 C 358.417 19.417,358.400 19.783,358.083 20.417 C 357.246 22.091,353.553 22.939,346.167 23.151 C 341.648 23.281,341.167 23.369,341.167 24.069 C 341.167 25.141,341.421 25.163,356.083 25.329 C 369.360 25.480,371.652 25.586,374.083 26.158 C 374.817 26.330,376.533 26.631,377.898 26.826 C 382.302 27.456,381.928 26.711,381.867 34.735 C 381.800 43.489,381.809 43.458,379.317 44.245 C 376.619 45.097,376.941 45.083,360.333 45.087 C 345.651 45.091,344.697 45.109,343.833 45.398 C 343.129 45.633,342.241 45.721,340.000 45.777 C 338.396 45.816,336.915 45.884,336.708 45.927 C 336.209 46.033,336.220 46.585,336.728 46.918 C 337.147 47.192,337.292 47.202,345.139 47.505 C 348.593 47.638,349.684 47.741,351.139 48.071 C 352.117 48.294,353.517 48.557,354.250 48.658 C 359.177 49.332,358.833 48.650,358.833 57.748 C 358.833 65.212,358.917 64.781,357.318 65.591 C 354.318 67.111,345.194 67.607,332.417 66.944 C 324.501 66.533,320.570 66.465,315.885 66.656 C 311.184 66.848,310.612 66.945,310.697 67.538 C 310.798 68.244,311.318 68.328,315.583 68.332 C 320.882 68.336,324.406 68.575,327.976 69.174 C 329.593 69.445,332.030 69.783,333.390 69.926 C 337.821 70.392,337.742 70.216,337.642 79.380 C 337.563 86.582,337.483 86.739,333.500 87.423 C 328.861 88.219,314.098 88.608,308.750 88.074 C 305.497 87.749,296.088 87.563,295.458 87.811 C 294.029 88.374,295.065 88.772,298.766 89.081 C 302.106 89.359,304.773 89.710,306.417 90.088 C 306.967 90.215,308.129 90.365,309.000 90.422 C 312.213 90.634,312.069 90.289,312.137 97.917 C 312.205 105.435,312.166 105.873,311.355 106.684 C 310.049 107.990,306.643 108.639,300.138 108.820 C 295.421 108.952,294.833 109.062,294.833 109.811 C 294.833 110.851,295.921 110.975,305.167 110.990 C 317.491 111.009,325.152 111.357,328.758 112.061 C 329.945 112.293,331.771 112.597,332.815 112.737 C 335.923 113.154,335.722 112.549,335.642 121.277 L 335.583 127.583 335.167 128.417 C 334.648 129.453,333.852 129.887,331.641 130.337 C 327.655 131.148,317.476 131.450,312.476 130.906 C 307.676 130.384,299.392 130.591,297.250 131.287 C 296.666 131.476,295.499 131.586,293.351 131.654 C 290.020 131.758,289.511 131.916,290.217 132.622 C 290.480 132.884,291.028 132.929,295.214 133.025 C 300.247 133.141,301.357 133.248,305.250 133.996 C 306.625 134.260,308.500 134.563,309.417 134.669 C 312.737 135.052,312.573 134.648,312.627 142.554 C 312.679 149.955,312.639 150.272,311.559 151.095 C 308.888 153.127,297.735 153.551,279.460 152.313 L 274.171 151.955 272.377 152.305 C 271.355 152.504,269.472 152.702,268.000 152.766 C 265.139 152.889,264.667 152.993,264.667 153.500 C 264.667 154.122,265.339 154.199,272.083 154.346 C 278.244 154.480,280.311 154.637,282.917 155.169 C 283.375 155.262,285.187 155.519,286.944 155.739 C 290.475 156.182,290.756 156.274,291.098 157.093 C 291.613 158.325,291.524 169.924,290.988 171.462 C 290.772 172.082,290.404 172.339,289.083 172.791 C 285.972 173.858,285.615 173.880,269.300 173.987 C 254.157 174.087,253.747 174.108,254.704 174.735 C 255.416 175.201,259.805 175.368,272.000 175.393 C 287.669 175.425,289.952 175.135,292.182 172.833 C 293.299 171.681,293.506 171.715,295.104 173.311 C 297.419 175.624,298.512 175.806,313.417 176.349 C 328.363 176.895,334.456 176.275,336.555 173.996 C 337.611 172.849,337.845 172.882,339.531 174.415 C 341.956 176.620,342.144 176.656,351.844 176.784 C 359.029 176.878,361.203 176.803,360.873 176.473 C 360.565 176.165,358.768 176.013,349.333 175.494 C 342.339 175.110,340.668 174.499,339.479 171.892 C 338.029 168.711,338.382 159.618,340.029 157.742 C 341.250 156.352,341.421 156.338,358.258 156.199 C 373.271 156.075,372.919 156.098,372.800 155.267 C 372.729 154.773,372.034 154.690,367.750 154.663 C 362.919 154.633,356.825 154.414,356.458 154.256 C 356.038 154.076,356.099 153.620,356.606 153.154 C 357.660 152.185,357.711 151.852,357.865 145.005 C 357.996 139.223,357.920 136.625,357.565 134.723 C 357.371 133.682,357.492 133.662,364.946 133.503 C 371.836 133.355,372.667 133.264,372.667 132.656 C 372.667 131.991,372.268 131.958,362.675 131.818 C 353.881 131.691,347.951 131.484,344.247 131.175 C 339.505 130.781,338.409 129.051,338.222 121.667 C 338.008 113.256,338.532 112.399,344.055 112.123 C 349.180 111.866,367.488 112.084,370.098 112.432 C 372.501 112.752,372.833 112.711,372.833 112.093 C 372.833 111.093,371.418 110.876,363.077 110.597 C 355.335 110.337,355.285 110.325,356.309 108.908 C 357.299 107.537,357.491 105.605,357.496 96.951 L 357.500 91.485 357.892 91.093 L 358.285 90.700 366.601 90.621 C 378.218 90.511,380.638 90.146,382.905 88.163 C 384.209 87.022,384.545 87.083,386.167 88.751 C 388.000 90.637,389.056 90.867,397.625 91.257 L 400.000 91.364 400.000 90.631 L 400.000 89.897 395.958 89.693 C 388.747 89.329,387.208 88.755,385.831 85.911 C 385.110 84.422,384.824 75.714,385.429 73.676 C 386.213 71.037,387.265 70.658,394.083 70.559 C 400.722 70.462,400.000 70.706,400.000 68.562 L 400.000 66.797 399.574 66.904 C 395.052 68.039,381.164 68.081,368.557 66.997 C 362.278 66.458,360.991 64.503,361.215 55.842 C 361.398 48.771,361.850 48.302,368.781 48.003 C 381.756 47.443,392.343 47.935,399.542 49.431 L 400.000 49.526 400.000 47.680 C 400.000 46.664,399.981 45.831,399.958 45.829 C 399.935 45.826,399.129 45.786,398.167 45.741 C 388.205 45.268,387.633 45.152,386.107 43.289 C 384.728 41.607,384.395 39.451,384.553 33.250 C 384.726 26.467,384.709 26.479,393.958 26.374 L 400.000 26.305 400.000 24.569 C 400.000 23.614,399.971 22.833,399.935 22.833 C 399.899 22.833,399.281 22.943,398.560 23.078 C 393.196 24.080,367.817 23.826,364.625 22.739 C 363.666 22.412,361.990 20.771,361.417 19.597 C 360.157 17.019,360.432 7.394,361.814 5.667 C 363.098 4.062,362.241 4.136,378.833 4.199 L 392.583 4.252 394.667 4.802 C 395.985 5.151,397.347 5.389,398.375 5.451 L 400.000 5.548 400.000 4.784 L 400.000 4.020 399.292 3.933 C 398.902 3.886,398.021 3.801,397.333 3.746 C 396.646 3.690,395.483 3.492,394.750 3.306 C 392.685 2.780,389.981 2.681,377.583 2.679 C 364.471 2.678,363.084 2.749,361.708 3.494 C 360.625 4.081,360.181 4.107,358.576 3.680 C 357.930 3.508,356.880 3.316,356.242 3.254 C 354.374 3.071,352.043 2.683,350.693 2.329 C 348.997 1.885,341.849 1.830,341.493 2.258 M361.091 22.076 C 361.984 22.969,361.477 23.833,360.060 23.833 C 358.142 23.833,357.886 22.814,359.584 21.929 C 360.277 21.568,360.616 21.601,361.091 22.076 M384.762 44.362 C 386.087 45.584,385.578 46.328,383.417 46.329 C 380.977 46.329,380.776 45.930,382.464 44.443 C 383.545 43.490,383.806 43.481,384.762 44.362 M360.456 46.933 C 361.472 47.086,361.543 48.167,360.537 48.167 C 360.305 48.167,359.303 47.904,358.311 47.583 C 357.241 47.238,356.169 47.000,355.680 47.000 C 355.225 47.000,354.807 46.926,354.752 46.836 C 354.652 46.674,359.267 46.753,360.456 46.933 M361.679 65.987 C 362.659 66.967,362.039 67.833,360.357 67.833 C 359.341 67.833,358.881 67.380,359.225 66.716 C 359.845 65.516,360.897 65.204,361.679 65.987 M366.833 69.502 C 371.243 69.620,372.749 69.719,374.000 69.974 C 375.590 70.297,377.587 70.572,379.742 70.764 C 382.172 70.980,382.206 71.107,382.135 79.750 C 382.071 87.624,382.153 87.400,379.064 88.163 C 373.168 89.619,347.836 89.316,344.099 87.744 C 341.376 86.599,340.750 84.794,340.750 78.083 C 340.750 71.549,341.274 70.117,343.893 69.492 C 344.630 69.317,360.142 69.323,366.833 69.502 M385.140 69.646 C 385.518 69.886,385.299 70.560,384.783 70.740 C 384.243 70.929,383.784 70.721,383.690 70.243 C 383.581 69.687,384.565 69.282,385.140 69.646 M340.433 86.450 C 341.245 87.326,340.583 88.558,339.452 88.274 C 338.608 88.062,338.460 87.040,339.171 86.329 C 339.616 85.884,339.937 85.915,340.433 86.450 M345.137 90.156 C 346.267 90.247,347.885 90.471,348.733 90.654 C 349.580 90.838,351.199 91.103,352.331 91.243 C 355.955 91.692,355.750 91.175,355.750 99.855 C 355.750 107.756,355.816 107.373,354.324 108.123 C 350.778 109.905,321.172 109.962,317.723 108.194 C 313.033 105.789,312.630 91.559,317.216 90.319 C 318.920 89.859,339.882 89.736,345.137 90.156 M314.561 107.845 C 315.482 108.570,314.992 109.333,313.606 109.333 C 312.282 109.333,312.058 108.670,313.105 107.846 C 313.660 107.410,314.007 107.409,314.561 107.845 M338.445 130.078 C 339.572 131.206,338.807 132.166,336.781 132.166 C 334.866 132.167,334.616 131.467,336.099 130.259 C 337.236 129.333,337.666 129.299,338.445 130.078 M314.738 132.929 C 315.272 133.462,314.672 134.097,313.803 133.917 C 312.986 133.748,311.891 133.005,312.185 132.818 C 312.595 132.559,314.448 132.639,314.738 132.929 M342.017 133.830 C 345.211 133.934,347.164 134.071,347.934 134.245 C 348.566 134.388,350.413 134.725,352.037 134.994 C 356.595 135.749,356.232 135.090,356.308 142.750 C 356.402 152.183,356.263 152.464,351.167 153.177 C 347.132 153.741,326.741 153.398,320.613 152.663 C 316.271 152.142,314.837 149.671,314.834 142.702 C 314.832 136.039,315.670 134.296,319.087 133.858 C 320.659 133.656,336.103 133.638,342.017 133.830 M315.425 151.774 C 316.263 152.679,315.869 153.499,314.536 153.623 C 312.638 153.799,312.216 152.677,313.789 151.639 C 314.431 151.216,314.946 151.258,315.425 151.774 M324.000 155.495 C 325.834 155.596,327.980 155.819,328.925 156.007 C 329.846 156.191,331.479 156.450,332.554 156.583 C 335.954 157.005,335.750 156.490,335.750 164.667 C 335.750 173.927,335.711 173.995,329.899 174.691 C 324.939 175.285,300.673 174.685,298.322 173.911 C 295.261 172.902,293.632 167.552,294.339 160.834 C 294.715 157.261,295.651 155.809,297.888 155.329 C 298.805 155.132,319.814 155.266,324.000 155.495 M338.630 155.426 C 339.238 155.852,338.860 156.667,338.054 156.667 C 337.414 156.667,337.148 155.887,337.649 155.480 C 338.119 155.101,338.161 155.098,338.630 155.426 M322.583 195.521 C 315.337 196.136,310.201 197.685,301.659 201.834 C 297.064 204.066,296.364 204.322,294.833 204.330 C 290.312 204.354,281.814 206.800,278.335 209.080 C 274.992 211.270,274.687 212.285,274.686 221.250 C 274.685 226.290,274.710 226.324,278.404 226.494 C 281.224 226.624,281.173 226.597,282.419 228.595 C 283.788 230.793,283.436 231.000,279.600 230.250 C 278.428 230.021,277.382 229.839,277.276 229.847 C 276.722 229.886,278.470 230.399,280.392 230.761 C 281.597 230.988,282.846 231.247,283.166 231.337 C 284.238 231.636,290.222 232.208,292.500 232.229 L 294.750 232.250 295.961 231.282 C 296.627 230.750,297.527 229.858,297.961 229.300 C 300.038 226.630,299.146 226.815,309.083 227.006 C 313.300 227.087,321.587 227.234,327.500 227.333 C 341.898 227.573,341.832 227.565,342.829 229.186 C 343.974 231.045,347.119 233.631,348.624 233.951 C 349.534 234.144,353.900 234.057,354.857 233.828 C 355.740 233.616,357.835 231.575,359.578 229.228 C 360.403 228.117,360.728 227.930,363.333 227.077 C 370.054 224.876,370.721 223.615,370.911 212.750 C 371.039 205.460,371.393 205.857,363.690 204.671 C 359.956 204.096,358.574 203.736,357.186 202.977 C 351.260 199.736,347.729 198.310,342.250 196.943 C 336.569 195.526,328.985 194.977,322.583 195.521 M335.417 199.100 C 339.125 199.553,344.678 200.871,346.697 201.777 C 348.212 202.457,348.210 203.343,346.692 204.410 C 345.716 205.096,344.853 205.153,337.917 204.983 C 328.754 204.759,329.417 205.008,329.417 201.782 C 329.417 198.397,329.470 198.373,335.417 199.100 M325.491 199.157 C 326.340 200.007,326.130 204.008,325.213 204.431 C 324.457 204.779,307.036 204.612,306.125 204.248 C 305.965 204.183,305.833 203.988,305.833 203.813 C 305.833 202.031,324.050 197.717,325.491 199.157 M355.087 205.727 C 357.491 207.084,357.294 207.025,362.120 207.829 C 366.399 208.543,366.932 208.691,367.098 209.212 C 367.310 209.880,366.703 210.181,364.929 210.287 C 362.849 210.411,362.583 210.594,362.583 211.897 C 362.583 213.277,362.868 213.492,364.889 213.640 C 367.135 213.804,367.071 213.708,367.136 217.007 C 367.223 221.362,366.838 222.111,363.938 223.221 C 361.390 224.196,361.188 224.121,360.427 221.917 C 357.223 212.629,344.973 212.574,342.000 221.834 C 341.251 224.165,341.741 224.000,335.571 224.000 C 329.902 224.000,329.489 223.945,329.156 223.141 C 328.928 222.589,329.046 213.325,329.319 210.426 C 329.538 208.097,328.663 208.291,338.664 208.359 C 348.402 208.426,347.159 208.651,349.651 206.366 C 352.117 204.104,352.194 204.095,355.087 205.727 M321.390 208.139 L 325.029 208.250 325.443 208.732 L 325.857 209.213 325.746 214.898 C 325.611 221.767,325.491 223.302,325.059 223.633 C 324.718 223.895,308.754 223.797,303.523 223.502 C 300.484 223.330,300.373 223.269,299.920 221.534 C 297.220 211.183,283.795 211.315,280.919 221.720 C 280.514 223.183,278.943 223.665,278.213 222.550 C 277.636 221.670,277.808 215.057,278.442 213.721 C 279.509 211.472,286.031 208.756,292.333 207.936 C 293.121 207.833,316.826 207.999,321.390 208.139 M315.106 209.845 C 314.501 210.322,314.470 211.652,315.052 212.234 C 315.774 212.956,319.986 213.014,320.689 212.311 C 320.916 212.084,321.000 211.757,321.000 211.095 C 321.000 209.653,320.696 209.500,317.833 209.500 C 315.771 209.500,315.502 209.534,315.106 209.845 M293.059 217.797 C 298.744 220.458,297.327 228.760,291.045 229.593 C 288.796 229.891,286.027 228.361,284.946 226.223 C 282.301 220.987,287.759 215.317,293.059 217.797 M353.866 218.871 C 358.519 221.008,358.448 227.954,353.751 230.104 C 349.487 232.056,344.656 228.546,345.039 223.774 C 345.368 219.683,350.015 217.101,353.866 218.871 " stroke="none" fill="#040404" fill-rule="evenodd"></path></g></svg>