<svg id="svg" version="1.1" xmlns="http://www.w3.org/2000/svg" xmlns:xlink="http://www.w3.org/1999/xlink" width="400" height="417.9959100204499" viewBox="0, 0, 400,417.9959100204499"><g id="svgg"><path id="path0" d="M190.200 1.037 C 167.829 2.746,154.295 5.320,136.787 11.198 C 26.940 48.075,-28.283 169.975,16.428 276.878 C 28.209 305.048,47.768 331.821,70.575 351.000 C 73.191 353.200,75.853 355.450,76.491 356.001 L 77.651 357.001 70.270 372.201 C 66.211 380.560,60.688 391.900,57.998 397.400 C 51.090 411.522,48.762 416.496,48.967 416.700 C 49.191 416.925,51.151 416.175,62.800 411.406 C 67.970 409.289,77.780 405.299,84.600 402.538 C 91.420 399.778,103.840 394.725,112.200 391.310 C 126.324 385.540,127.485 385.134,128.600 385.571 C 185.084 407.733,252.656 401.470,304.400 369.276 C 431.872 289.966,430.251 105.814,301.400 28.604 C 269.379 9.416,224.894 -1.612,190.200 1.037 M217.800 40.177 C 319.883 52.472,384.654 153.407,352.577 250.206 C 322.840 339.939,222.480 384.718,135.701 346.971 C 52.677 310.857,16.074 213.021,54.839 130.838 C 83.711 69.631,151.095 32.143,217.800 40.177 " stroke="none" fill="#d25456" fill-rule="evenodd"></path></g></svg>