<svg id="svg" xmlns="http://www.w3.org/2000/svg" xmlns:xlink="http://www.w3.org/1999/xlink" width="400" height="400" viewBox="0, 0, 400,400" version="1.1"><g id="svgg"><path id="path0" d="M88.200 99.855 C 84.519 103.856,84.876 103.442,82.598 106.348 C 81.499 107.749,79.768 109.919,78.751 111.169 C 77.734 112.419,76.604 113.973,76.240 114.621 C 75.875 115.270,74.852 116.790,73.966 118.000 C 73.080 119.210,71.999 120.830,71.563 121.600 C 71.127 122.370,70.332 123.720,69.798 124.600 C 69.263 125.480,68.465 126.934,68.024 127.831 C 67.584 128.728,66.887 129.898,66.476 130.431 C 66.065 130.964,65.517 132.018,65.259 132.774 C 65.001 133.530,64.545 134.430,64.246 134.774 C 63.946 135.118,63.474 136.120,63.197 137.000 C 62.919 137.880,62.266 139.336,61.746 140.235 C 61.226 141.134,60.799 142.124,60.798 142.435 C 60.798 142.746,60.258 144.080,59.600 145.400 C 58.942 146.720,58.402 148.117,58.402 148.504 C 58.401 148.892,58.048 149.972,57.617 150.904 C 56.827 152.614,55.770 156.081,54.357 161.600 C 53.934 163.250,53.296 165.590,52.938 166.800 C 52.581 168.010,52.055 170.800,51.769 173.000 C 51.484 175.200,50.929 178.350,50.535 180.000 C 49.336 185.031,49.454 214.653,50.695 220.200 C 51.188 222.400,51.763 225.648,51.974 227.417 C 52.184 229.187,52.560 231.167,52.809 231.817 C 53.058 232.468,53.587 234.530,53.985 236.400 C 54.382 238.270,54.980 240.520,55.314 241.400 C 55.648 242.280,56.147 243.900,56.423 245.000 C 56.700 246.100,57.257 247.668,57.663 248.484 C 58.068 249.300,58.401 250.290,58.402 250.684 C 58.402 251.078,58.942 252.480,59.600 253.800 C 60.258 255.120,60.798 256.443,60.798 256.741 C 60.799 257.039,61.237 258.119,61.772 259.141 C 62.307 260.163,63.419 262.440,64.243 264.200 C 65.499 266.878,67.278 270.234,69.759 274.600 C 70.478 275.866,71.583 277.588,73.563 280.529 C 74.573 282.030,75.760 283.843,76.200 284.557 C 77.926 287.360,86.647 297.808,89.833 300.890 C 94.200 305.113,94.949 305.802,94.676 305.342 C 94.256 304.634,95.491 302.089,96.393 301.802 C 96.837 301.661,97.200 301.280,97.200 300.954 C 97.200 300.629,97.739 300.056,98.397 299.681 C 99.056 299.307,99.596 298.771,99.597 298.491 C 99.599 298.212,100.050 297.778,100.600 297.527 C 101.150 297.277,101.600 296.928,101.600 296.752 C 101.600 296.356,109.653 288.400,110.055 288.400 C 110.215 288.400,110.464 288.029,110.608 287.576 C 110.752 287.122,111.300 286.555,111.827 286.315 C 112.354 286.075,112.894 285.535,113.027 285.115 C 113.160 284.695,113.700 284.155,114.227 283.915 C 114.754 283.675,115.294 283.135,115.427 282.715 C 115.560 282.295,116.104 281.753,116.635 281.511 C 117.166 281.270,117.600 280.841,117.600 280.558 C 117.600 280.276,118.140 279.726,118.800 279.336 C 119.460 278.946,120.000 278.477,120.000 278.294 C 120.000 277.861,127.094 270.885,128.061 270.367 C 128.467 270.150,128.800 269.704,128.800 269.377 C 128.800 269.050,129.247 268.579,129.792 268.331 C 130.338 268.082,130.894 267.535,131.027 267.115 C 131.160 266.695,131.704 266.153,132.235 265.911 C 132.766 265.670,133.200 265.349,133.200 265.199 C 133.200 264.700,136.402 261.653,137.189 261.404 C 139.697 260.608,143.188 262.992,143.217 265.520 C 143.226 266.334,143.555 268.333,143.947 269.961 C 144.489 272.212,144.570 273.320,144.282 274.578 C 143.968 275.950,144.048 276.550,144.752 278.094 C 145.218 279.118,145.600 280.301,145.600 280.722 C 145.600 281.144,146.032 282.125,146.560 282.903 C 147.088 283.681,147.638 284.688,147.781 285.141 C 148.083 286.091,150.216 288.000,150.976 288.000 C 151.259 288.000,152.169 288.540,153.000 289.200 C 153.831 289.860,154.779 290.400,155.108 290.400 C 155.437 290.400,156.321 290.780,157.073 291.245 C 158.218 291.953,158.878 292.059,161.120 291.900 C 162.594 291.795,164.724 291.885,165.854 292.100 C 167.662 292.445,168.045 292.394,169.054 291.670 C 169.684 291.219,170.959 290.653,171.887 290.413 C 172.814 290.173,173.714 289.746,173.887 289.465 C 174.059 289.183,174.811 288.706,175.557 288.404 C 176.304 288.102,177.355 287.448,177.892 286.949 C 178.430 286.451,178.989 285.989,179.135 285.922 C 179.638 285.691,182.400 281.210,182.400 280.625 C 182.400 280.030,182.799 278.937,183.944 276.400 C 184.970 274.126,185.024 269.006,184.054 265.971 C 182.657 261.602,181.960 259.824,181.397 259.199 C 181.099 258.869,180.618 258.143,180.328 257.586 C 179.489 255.978,176.727 253.727,175.200 253.407 C 174.430 253.246,173.232 252.769,172.538 252.348 C 171.556 251.752,170.271 251.541,166.738 251.398 C 157.120 251.009,156.645 250.885,155.243 248.390 C 154.770 247.549,154.162 246.780,153.892 246.682 C 153.504 246.541,153.504 246.345,153.896 245.751 C 154.169 245.338,154.775 244.290,155.243 243.423 C 155.711 242.556,156.838 241.159,157.747 240.320 C 158.656 239.480,159.553 238.632,159.740 238.436 C 159.927 238.240,160.440 237.720,160.880 237.280 C 161.320 236.840,161.860 236.300,162.080 236.080 C 162.300 235.860,162.840 235.320,163.280 234.880 C 163.720 234.440,164.244 233.927,164.444 233.740 C 164.644 233.553,167.059 231.105,169.811 228.300 C 172.563 225.495,174.996 223.200,175.217 223.200 C 175.439 223.200,175.785 222.765,175.987 222.234 C 176.189 221.703,176.724 221.151,177.177 221.007 C 177.630 220.864,178.000 220.592,178.000 220.404 C 178.000 220.216,180.385 217.709,183.300 214.833 C 186.215 211.957,188.753 209.441,188.940 209.242 C 189.337 208.819,190.722 207.431,191.236 206.940 C 191.432 206.753,192.273 205.864,193.104 204.964 C 195.269 202.619,196.110 202.243,197.813 202.859 C 198.576 203.135,199.200 203.519,199.200 203.712 C 199.200 204.195,211.919 216.800,212.407 216.800 C 212.623 216.800,212.800 216.978,212.800 217.195 C 212.800 217.665,225.007 229.999,225.476 230.003 C 225.654 230.004,226.107 230.544,226.481 231.203 C 226.856 231.861,227.441 232.400,227.781 232.400 C 228.122 232.400,228.400 232.678,228.400 233.019 C 228.400 233.359,228.939 233.944,229.597 234.319 C 230.256 234.693,230.796 235.158,230.797 235.351 C 230.802 235.997,237.784 242.514,239.032 243.037 C 239.709 243.321,240.496 243.834,240.781 244.177 C 241.523 245.072,244.109 244.985,244.967 244.036 C 245.348 243.616,246.096 243.162,246.629 243.028 C 247.163 242.894,247.600 242.633,247.600 242.447 C 247.600 242.262,248.140 241.431,248.800 240.600 C 249.914 239.199,250.000 238.853,250.000 235.799 C 250.000 233.042,250.139 232.331,250.856 231.420 C 251.648 230.413,251.676 230.171,251.232 228.188 C 250.833 226.405,250.850 225.889,251.331 225.122 C 251.650 224.615,252.030 223.515,252.177 222.678 C 252.526 220.691,256.476 216.617,258.459 216.199 C 259.197 216.043,260.292 215.454,260.892 214.890 C 262.587 213.300,272.235 213.259,274.630 214.832 C 275.493 215.400,276.819 216.077,277.576 216.338 C 279.730 217.079,284.693 222.579,285.029 224.595 C 285.176 225.478,285.634 226.868,286.048 227.684 C 286.978 229.519,287.100 234.749,286.245 236.114 C 285.940 236.601,285.470 237.990,285.200 239.200 C 284.930 240.410,284.418 241.850,284.062 242.400 C 282.984 244.063,282.400 245.263,282.400 245.814 C 282.400 246.101,281.856 246.456,281.190 246.602 C 280.525 246.748,279.490 247.275,278.890 247.773 C 277.422 248.992,276.066 249.270,271.752 249.235 C 268.682 249.210,267.939 249.333,267.087 250.003 C 266.332 250.597,265.465 250.800,263.686 250.800 C 260.938 250.800,258.567 251.645,258.216 252.749 C 258.083 253.168,257.530 253.990,256.987 254.576 C 255.511 256.169,255.533 258.730,257.040 260.521 C 257.568 261.148,258.000 261.893,258.000 262.177 C 258.000 262.821,263.332 268.400,263.948 268.400 C 264.197 268.400,264.400 268.574,264.400 268.787 C 264.400 269.319,270.246 275.200,270.774 275.200 C 271.008 275.200,271.200 275.394,271.200 275.632 C 271.200 275.869,271.996 276.859,272.968 277.832 C 273.941 278.804,274.931 279.600,275.168 279.600 C 275.406 279.600,275.600 279.878,275.600 280.219 C 275.600 280.559,276.139 281.144,276.797 281.519 C 277.456 281.893,277.996 282.350,277.997 282.533 C 278.002 283.071,281.353 286.386,281.900 286.393 C 282.175 286.397,282.400 286.592,282.400 286.826 C 282.400 287.326,288.267 293.200,288.766 293.200 C 288.954 293.200,289.204 293.573,289.324 294.030 C 289.443 294.486,289.914 294.957,290.370 295.076 C 290.827 295.196,291.200 295.456,291.200 295.654 C 291.200 295.852,292.685 297.480,294.500 299.271 C 296.315 301.063,298.178 303.151,298.639 303.912 C 299.327 305.047,299.525 305.173,299.740 304.611 C 300.093 303.692,299.174 302.499,294.797 298.200 C 292.782 296.220,290.833 294.273,290.466 293.874 C 290.100 293.475,282.909 286.275,274.486 277.874 C 260.813 264.237,259.039 262.322,257.933 260.005 L 256.695 257.409 257.848 255.256 C 259.382 252.388,260.206 251.910,263.865 251.762 C 265.946 251.678,267.115 251.439,267.603 250.997 C 268.121 250.528,268.999 250.376,270.856 250.432 C 273.976 250.527,277.858 249.784,279.200 248.836 C 279.750 248.447,280.839 247.826,281.619 247.457 C 283.106 246.753,285.042 243.483,286.624 239.000 C 287.724 235.883,287.893 228.989,286.925 226.754 C 286.507 225.789,285.933 224.277,285.649 223.393 C 284.983 221.319,280.301 216.314,278.417 215.662 C 277.657 215.399,276.667 214.849,276.217 214.440 C 274.910 213.250,268.030 212.119,265.773 212.723 C 264.792 212.985,263.496 213.203,262.894 213.206 C 262.292 213.209,261.350 213.475,260.800 213.797 C 260.250 214.118,258.900 214.814,257.800 215.343 C 255.760 216.324,251.600 220.315,251.600 221.291 C 251.600 221.588,251.214 222.544,250.742 223.415 C 250.128 224.549,249.851 225.854,249.771 228.000 C 249.327 239.831,247.780 243.200,242.789 243.200 C 240.535 243.200,235.847 239.827,232.040 235.467 C 231.688 235.063,230.083 233.443,228.474 231.867 C 226.864 230.290,225.334 228.777,225.074 228.505 C 221.184 224.440,201.008 204.400,200.805 204.400 C 200.653 204.400,200.323 203.950,200.073 203.400 C 199.822 202.850,199.371 202.400,199.071 202.400 C 198.770 202.400,198.213 202.056,197.833 201.636 C 197.452 201.216,196.716 200.765,196.197 200.635 C 195.678 200.505,195.136 200.028,194.992 199.576 C 194.849 199.124,194.297 198.589,193.766 198.387 C 193.235 198.185,192.800 197.756,192.800 197.433 C 192.800 197.110,192.273 196.534,191.629 196.153 C 190.984 195.773,190.371 195.132,190.266 194.731 C 190.161 194.329,189.833 193.999,189.537 193.997 C 189.242 193.996,188.693 193.456,188.319 192.797 C 187.944 192.139,187.362 191.600,187.026 191.600 C 186.690 191.600,186.306 191.166,186.173 190.635 C 186.035 190.087,185.543 189.572,185.034 189.444 C 184.541 189.320,183.930 188.765,183.677 188.210 C 183.424 187.654,182.939 187.200,182.599 187.200 C 182.259 187.200,181.802 186.733,181.585 186.161 C 181.368 185.590,180.854 185.035,180.444 184.927 C 180.033 184.820,179.507 184.313,179.273 183.801 C 179.040 183.289,178.478 182.752,178.024 182.608 C 177.571 182.464,177.200 182.204,177.200 182.031 C 177.200 181.606,173.674 178.000,173.258 178.000 C 173.077 178.000,172.730 177.566,172.489 177.035 C 172.247 176.504,171.678 175.952,171.224 175.808 C 170.771 175.664,170.400 175.293,170.400 174.983 C 170.400 174.674,169.860 174.141,169.200 173.800 C 168.540 173.459,168.000 172.910,168.000 172.581 C 168.000 172.252,167.570 171.787,167.044 171.547 C 166.518 171.308,165.892 170.682,165.653 170.156 C 165.413 169.630,164.948 169.200,164.619 169.200 C 164.290 169.200,163.741 168.660,163.400 168.000 C 163.059 167.340,162.514 166.800,162.190 166.800 C 161.865 166.800,161.600 166.637,161.600 166.437 C 161.600 165.965,158.138 162.400,157.679 162.400 C 157.486 162.400,157.130 161.966,156.889 161.435 C 156.647 160.904,156.078 160.352,155.625 160.208 C 155.172 160.064,154.696 159.524,154.566 159.008 C 154.431 158.468,153.932 157.969,153.392 157.834 C 152.876 157.704,152.352 157.284,152.228 156.899 C 152.038 156.311,149.593 154.546,149.442 154.888 C 149.414 154.949,148.809 155.754,148.096 156.677 C 147.383 157.599,146.794 158.679,146.788 159.077 C 146.781 159.474,146.332 160.520,145.790 161.400 C 144.884 162.871,144.803 163.404,144.785 168.000 C 144.762 173.922,144.400 176.122,143.250 177.347 C 142.782 177.844,142.400 178.569,142.400 178.957 C 142.400 179.346,141.545 180.464,140.500 181.443 C 139.455 182.421,138.221 183.577,137.758 184.011 C 137.295 184.444,136.080 184.914,135.058 185.054 C 134.018 185.197,133.200 185.521,133.200 185.790 C 133.200 187.822,117.425 187.805,116.645 185.772 C 116.524 185.457,116.073 185.200,115.643 185.200 C 115.213 185.200,114.353 184.775,113.731 184.256 C 113.109 183.737,112.015 183.013,111.300 182.646 C 110.585 182.279,110.000 181.810,110.000 181.603 C 110.000 181.396,109.370 180.597,108.600 179.827 C 107.774 179.001,107.200 178.031,107.200 177.462 C 107.200 176.932,106.830 176.251,106.379 175.949 C 105.515 175.372,104.834 173.156,104.797 170.800 C 104.785 170.030,104.510 169.051,104.187 168.624 C 103.422 167.612,103.430 165.039,104.200 164.400 C 104.530 164.126,104.804 163.249,104.810 162.451 C 104.825 160.140,105.469 157.967,106.314 157.375 C 106.743 157.075,107.205 156.327,107.341 155.714 C 107.636 154.376,111.582 150.000,112.494 150.000 C 112.848 150.000,113.726 149.506,114.444 148.901 C 115.710 147.837,115.962 147.791,122.575 147.438 C 126.329 147.237,129.490 146.949,129.600 146.796 C 129.965 146.291,131.381 145.709,132.921 145.431 C 133.758 145.279,134.544 144.889,134.669 144.563 C 134.795 144.237,135.406 143.707,136.029 143.385 C 137.339 142.708,136.875 140.541,135.296 139.957 C 134.860 139.796,134.386 139.199,134.244 138.632 C 134.073 137.952,133.711 137.600,133.182 137.600 C 132.702 137.600,132.233 137.212,132.013 136.634 C 131.811 136.103,131.303 135.560,130.884 135.427 C 130.464 135.293,129.918 134.738,129.669 134.192 C 129.421 133.647,128.972 133.200,128.673 133.200 C 128.373 133.200,127.930 132.766,127.689 132.235 C 127.447 131.704,126.905 131.160,126.485 131.027 C 126.065 130.894,125.518 130.338,125.269 129.792 C 125.021 129.247,124.539 128.800,124.199 128.800 C 123.859 128.800,123.402 128.333,123.185 127.761 C 122.968 127.190,122.454 126.635,122.044 126.527 C 121.633 126.420,121.107 125.913,120.873 125.401 C 120.640 124.889,120.087 124.355,119.645 124.214 C 119.203 124.074,118.726 123.598,118.586 123.157 C 118.446 122.715,117.897 122.189,117.366 121.987 C 116.835 121.785,116.400 121.435,116.400 121.210 C 116.400 120.722,113.345 117.600,112.868 117.600 C 112.685 117.600,112.296 117.153,112.004 116.607 C 111.711 116.060,111.168 115.517,110.797 115.399 C 110.425 115.281,109.925 114.754,109.685 114.227 C 109.445 113.700,108.905 113.160,108.485 113.027 C 108.065 112.894,107.518 112.338,107.269 111.792 C 107.021 111.247,106.548 110.800,106.219 110.800 C 105.890 110.800,105.341 110.260,105.000 109.600 C 104.659 108.940,104.143 108.400,103.854 108.400 C 103.565 108.400,103.130 107.966,102.889 107.435 C 102.647 106.904,102.105 106.360,101.685 106.227 C 101.265 106.094,100.725 105.554,100.485 105.027 C 100.245 104.500,99.687 103.955,99.245 103.814 C 98.803 103.674,98.333 103.217,98.200 102.800 C 98.067 102.383,97.636 101.938,97.240 101.813 C 96.845 101.687,96.325 101.154,96.085 100.627 C 95.845 100.100,95.278 99.552,94.824 99.408 C 94.371 99.264,94.000 98.916,94.000 98.635 C 94.000 97.894,92.664 96.799,91.769 96.806 C 91.328 96.809,89.806 98.109,88.200 99.855 M183.594 268.900 C 183.586 269.549,182.814 270.756,182.806 270.133 C 182.803 269.876,182.691 269.381,182.557 269.033 C 182.398 268.618,182.535 268.400,182.957 268.400 C 183.311 268.400,183.597 268.625,183.594 268.900 M183.600 272.624 C 183.600 272.941,183.347 273.200,183.037 273.200 C 182.673 273.200,182.548 272.920,182.683 272.404 C 182.911 271.534,183.600 271.699,183.600 272.624 M99.600 310.057 C 99.710 310.135,100.332 310.650,100.982 311.200 L 102.163 312.200 101.534 311.200 C 101.188 310.650,100.566 310.135,100.152 310.057 C 99.738 309.978,99.490 309.978,99.600 310.057 M292.511 310.500 C 291.520 311.781,291.578 312.108,292.635 311.200 C 293.276 310.650,293.875 310.155,293.967 310.100 C 294.058 310.045,293.855 310.000,293.516 310.000 C 293.176 310.000,292.724 310.225,292.511 310.500 M284.556 317.192 C 284.091 317.380,283.601 317.820,283.467 318.170 C 283.283 318.649,283.519 318.588,284.411 317.929 C 285.989 316.762,286.021 316.600,284.556 317.192 M108.400 317.325 C 108.400 317.393,108.955 317.860,109.633 318.361 L 110.866 319.273 110.187 318.236 C 109.644 317.407,108.400 316.773,108.400 317.325 M276.984 322.427 C 276.548 323.132,277.007 323.230,277.829 322.609 C 278.506 322.097,278.517 322.024,277.924 322.013 C 277.552 322.006,277.129 322.192,276.984 322.427 M118.200 324.068 C 118.640 324.312,119.315 324.785,119.700 325.118 C 120.129 325.489,120.400 325.549,120.400 325.272 C 120.400 325.024,119.869 324.546,119.220 324.210 C 117.877 323.516,116.979 323.391,118.200 324.068 M273.777 324.567 C 273.350 324.879,273.107 325.240,273.236 325.370 C 273.366 325.499,273.798 325.244,274.198 324.802 C 275.048 323.863,274.873 323.766,273.777 324.567 M122.000 326.284 C 122.330 326.405,122.915 326.779,123.300 327.114 C 123.685 327.450,124.000 327.552,124.000 327.342 C 124.000 326.681,123.073 325.999,122.220 326.032 C 121.643 326.054,121.578 326.129,122.000 326.284 M270.300 326.432 C 269.915 326.656,269.600 327.039,269.600 327.282 C 269.600 327.541,269.890 327.471,270.300 327.114 C 270.685 326.779,271.270 326.405,271.600 326.284 C 272.133 326.088,272.133 326.061,271.600 326.044 C 271.270 326.033,270.685 326.208,270.300 326.432 M131.024 331.387 C 131.451 331.710,131.980 331.975,132.200 331.975 C 132.420 331.975,132.251 331.710,131.824 331.387 C 131.396 331.064,130.867 330.800,130.647 330.800 C 130.427 330.800,130.596 331.064,131.024 331.387 M261.000 331.600 C 260.082 332.615,260.427 332.615,262.090 331.601 C 263.175 330.940,263.256 330.803,262.562 330.801 C 262.101 330.801,261.398 331.160,261.000 331.600 M251.300 335.688 C 250.805 335.927,250.400 336.275,250.400 336.461 C 250.400 337.039,251.353 336.819,252.400 336.000 C 253.501 335.139,252.832 334.949,251.300 335.688 M147.044 338.175 C 148.367 339.103,150.058 339.417,149.777 338.684 C 149.538 338.060,148.395 337.615,147.011 337.605 C 146.241 337.600,146.242 337.614,147.044 338.175 M243.800 338.400 C 242.805 339.499,243.992 339.499,246.000 338.400 L 247.400 337.634 245.962 337.617 C 245.016 337.606,244.276 337.874,243.800 338.400 M153.546 340.216 C 155.242 340.952,155.621 340.942,154.624 340.187 C 154.196 339.864,153.476 339.607,153.024 339.616 C 152.416 339.627,152.553 339.785,153.546 340.216 M238.792 340.210 C 238.033 341.124,238.453 341.182,239.800 340.347 C 240.849 339.698,240.893 339.604,240.149 339.602 C 239.681 339.601,239.070 339.874,238.792 340.210 M231.029 342.300 C 230.861 342.465,230.083 342.600,229.300 342.600 C 228.444 342.600,227.800 342.821,227.686 343.154 C 227.538 343.590,227.807 343.650,228.944 343.437 C 230.962 343.058,233.279 342.037,232.167 342.016 C 231.708 342.007,231.196 342.135,231.029 342.300 M164.408 342.795 C 163.911 343.102,163.930 343.198,164.528 343.428 C 165.363 343.748,165.908 343.348,165.370 342.810 C 165.143 342.583,164.761 342.577,164.408 342.795 M172.800 344.400 L 171.800 344.720 172.926 344.760 C 173.546 344.782,174.401 344.986,174.826 345.214 C 175.333 345.485,175.600 345.490,175.600 345.228 C 175.600 344.878,174.267 343.932,173.926 344.040 C 173.857 344.062,173.350 344.224,172.800 344.400 M218.584 344.827 C 218.169 345.498,218.494 345.533,220.000 344.977 L 221.400 344.461 220.124 344.430 C 219.422 344.414,218.729 344.592,218.584 344.827 M178.000 345.168 C 178.000 345.582,180.340 346.193,180.669 345.865 C 180.785 345.748,180.761 345.461,180.616 345.227 C 180.294 344.705,178.000 344.654,178.000 345.168 M213.200 345.400 C 212.798 345.884,212.808 345.999,213.251 345.995 C 214.272 345.984,215.600 345.509,215.600 345.153 C 215.600 344.566,213.733 344.757,213.200 345.400 M190.000 346.018 C 185.912 346.361,195.379 346.657,201.400 346.375 C 205.045 346.204,205.574 346.120,203.600 346.025 C 198.902 345.799,192.646 345.796,190.000 346.018 " stroke="none" fill="#397c60" fill-rule="evenodd"></path><path id="path1" d="M187.000 53.012 C 186.120 53.329,184.155 53.591,182.633 53.594 C 179.307 53.601,171.377 54.622,168.600 55.400 C 167.500 55.709,165.250 56.179,163.600 56.446 C 161.950 56.712,159.790 57.239,158.800 57.616 C 157.810 57.994,156.190 58.432,155.200 58.590 C 154.210 58.748,153.010 59.124,152.534 59.425 C 152.058 59.727,150.438 60.274,148.934 60.641 C 147.430 61.008,145.660 61.629,145.000 62.021 C 144.340 62.412,143.135 62.856,142.323 63.007 C 141.511 63.157,140.261 63.712,139.546 64.240 C 138.830 64.768,137.875 65.200,137.422 65.201 C 136.566 65.201,126.800 69.942,125.655 70.913 C 125.295 71.218,124.421 71.697,123.713 71.977 C 123.006 72.257,122.198 72.761,121.919 73.098 C 121.640 73.434,120.689 74.050,119.806 74.466 C 117.637 75.488,115.553 76.812,114.402 77.900 C 113.878 78.395,113.219 78.800,112.938 78.800 C 112.658 78.800,111.813 79.340,111.061 80.000 C 110.309 80.660,109.545 81.200,109.362 81.200 C 109.180 81.200,108.573 81.656,108.015 82.214 C 107.457 82.772,105.650 84.294,104.000 85.597 C 95.863 92.022,93.430 94.788,94.371 96.545 C 94.647 97.061,102.428 105.024,111.662 114.241 C 142.848 145.370,140.362 142.336,136.719 144.823 C 132.404 147.768,131.299 148.097,124.513 148.451 C 119.887 148.692,118.014 148.953,116.713 149.537 C 115.771 149.959,114.601 150.426,114.113 150.575 C 113.362 150.804,111.229 152.737,108.982 155.225 C 108.671 155.569,108.139 156.640,107.798 157.606 C 107.458 158.571,106.869 159.703,106.489 160.122 C 105.908 160.765,105.800 161.737,105.800 166.342 L 105.800 171.800 107.276 174.838 C 109.570 179.561,113.939 183.642,117.770 184.643 C 118.948 184.950,120.427 185.471,121.056 185.799 C 122.751 186.683,127.148 186.570,129.910 185.573 C 131.169 185.118,132.920 184.516,133.800 184.236 C 137.102 183.185,140.882 179.989,141.646 177.600 C 141.893 176.830,142.328 175.660,142.614 175.000 C 143.151 173.761,144.003 166.451,144.001 163.101 C 143.999 159.635,148.468 152.380,150.075 153.240 C 150.715 153.582,157.117 159.532,159.355 161.864 C 161.581 164.183,187.351 189.969,191.297 193.825 L 196.393 198.805 197.697 198.081 C 199.138 197.280,236.001 160.547,238.458 157.464 C 240.842 154.472,240.263 149.998,237.292 148.462 C 236.201 147.898,229.802 146.842,225.200 146.466 C 221.302 146.148,219.838 145.739,217.314 144.260 C 216.093 143.544,213.609 141.089,213.604 140.593 C 213.602 140.369,213.161 139.539,212.623 138.749 C 206.642 129.946,210.661 115.072,220.221 110.631 C 221.529 110.023,223.140 109.228,223.800 108.863 C 225.570 107.885,234.189 107.907,235.694 108.894 C 236.277 109.276,237.457 109.830,238.317 110.127 C 240.352 110.828,244.137 113.845,245.058 115.500 C 245.456 116.215,245.899 116.800,246.042 116.800 C 246.798 116.800,247.397 119.717,248.013 126.400 C 248.577 132.526,249.581 136.463,250.724 137.036 C 251.203 137.275,251.925 137.770,252.329 138.136 C 253.515 139.209,256.306 138.989,258.200 137.674 C 260.314 136.205,300.000 96.419,300.000 95.769 C 300.000 95.198,293.927 89.165,291.200 87.028 C 290.210 86.252,288.439 84.848,287.264 83.908 C 283.193 80.652,281.793 79.610,280.400 78.800 C 279.630 78.352,278.190 77.357,277.200 76.587 C 276.210 75.818,274.770 74.903,274.000 74.554 C 273.230 74.206,272.267 73.623,271.860 73.260 C 271.453 72.897,270.419 72.240,269.563 71.800 C 264.440 69.167,260.373 67.043,258.806 66.184 C 257.820 65.643,256.650 65.194,256.206 65.188 C 255.763 65.181,254.680 64.732,253.800 64.190 C 252.920 63.648,251.947 63.203,251.639 63.202 C 251.330 63.201,250.128 62.751,248.968 62.202 C 247.807 61.653,245.900 61.001,244.729 60.753 C 243.558 60.505,241.970 59.984,241.200 59.597 C 240.430 59.210,238.720 58.671,237.400 58.401 C 236.080 58.130,234.550 57.688,234.000 57.419 C 233.450 57.149,231.650 56.706,230.000 56.434 C 228.350 56.162,226.280 55.761,225.400 55.543 C 220.741 54.389,214.771 53.600,210.705 53.600 C 209.273 53.600,207.335 53.330,206.400 53.000 C 204.023 52.161,189.335 52.170,187.000 53.012 " stroke="none" fill="#f9faf9" fill-rule="evenodd"></path><path id="path2" d="M279.800 116.469 C 268.800 127.521,259.080 137.063,258.200 137.674 C 256.306 138.989,253.515 139.209,252.329 138.136 C 251.925 137.770,251.203 137.275,250.724 137.036 C 249.581 136.463,248.577 132.526,248.013 126.400 C 247.397 119.717,246.798 116.800,246.042 116.800 C 245.899 116.800,245.456 116.215,245.058 115.500 C 244.137 113.845,240.352 110.828,238.317 110.127 C 237.457 109.830,236.277 109.276,235.694 108.894 C 234.189 107.907,225.570 107.885,223.800 108.863 C 223.140 109.228,221.529 110.023,220.221 110.631 C 210.661 115.072,206.642 129.946,212.623 138.749 C 213.161 139.539,213.602 140.369,213.604 140.593 C 213.609 141.089,216.093 143.544,217.314 144.260 C 219.838 145.739,221.302 146.148,225.200 146.466 C 229.802 146.842,236.201 147.898,237.292 148.462 C 240.263 149.998,240.842 154.472,238.458 157.464 C 236.059 160.475,199.155 197.271,197.750 198.052 L 196.501 198.748 194.150 196.674 C 192.858 195.533,191.742 194.472,191.672 194.316 C 191.602 194.161,190.280 192.811,188.735 191.316 C 187.190 189.822,180.048 182.688,172.863 175.462 C 165.678 168.236,159.578 162.116,159.307 161.862 C 159.036 161.608,157.217 159.870,155.264 158.000 C 149.571 152.545,149.822 152.663,148.073 154.639 C 145.331 157.736,144.000 161.318,144.000 165.598 C 144.000 172.974,142.463 178.137,139.443 180.908 C 136.551 183.561,136.319 183.709,133.866 184.473 C 132.539 184.885,131.189 185.443,130.865 185.712 C 129.743 186.643,120.486 186.357,118.384 185.325 C 117.403 184.844,116.060 184.255,115.400 184.016 C 113.274 183.247,109.288 179.106,107.918 176.241 C 107.486 175.339,106.833 174.060,106.466 173.400 C 105.929 172.431,105.802 171.081,105.812 166.400 L 105.824 160.600 107.263 157.965 C 108.757 155.230,112.554 150.800,113.405 150.800 C 113.673 150.800,114.321 150.467,114.846 150.059 C 116.175 149.028,117.398 148.804,123.800 148.425 C 130.206 148.044,134.449 146.727,137.397 144.204 L 138.994 142.837 138.229 141.518 C 137.450 140.177,132.158 134.649,123.254 125.874 C 120.533 123.193,117.563 120.215,116.654 119.256 C 115.744 118.296,113.680 116.226,112.067 114.656 C 110.454 113.085,105.782 108.425,101.685 104.300 C 97.094 99.678,93.936 96.800,93.456 96.800 C 92.726 96.800,92.718 96.847,93.338 97.531 C 93.702 97.934,94.000 98.462,94.000 98.705 C 94.000 98.947,94.371 99.264,94.824 99.408 C 95.278 99.552,95.845 100.100,96.085 100.627 C 96.325 101.154,96.845 101.687,97.240 101.813 C 97.636 101.938,98.067 102.383,98.200 102.800 C 98.333 103.217,98.803 103.674,99.245 103.814 C 99.687 103.955,100.245 104.500,100.485 105.027 C 100.725 105.554,101.265 106.094,101.685 106.227 C 102.105 106.360,102.647 106.904,102.889 107.435 C 103.130 107.966,103.565 108.400,103.854 108.400 C 104.143 108.400,104.659 108.940,105.000 109.600 C 105.341 110.260,105.890 110.800,106.219 110.800 C 106.548 110.800,107.021 111.247,107.269 111.792 C 107.518 112.338,108.065 112.894,108.485 113.027 C 108.905 113.160,109.445 113.700,109.685 114.227 C 109.925 114.754,110.425 115.281,110.797 115.399 C 111.168 115.517,111.711 116.060,112.004 116.607 C 112.296 117.153,112.685 117.600,112.868 117.600 C 113.345 117.600,116.400 120.722,116.400 121.210 C 116.400 121.435,116.835 121.785,117.366 121.987 C 117.897 122.189,118.446 122.715,118.586 123.157 C 118.726 123.598,119.203 124.074,119.645 124.214 C 120.087 124.355,120.640 124.889,120.873 125.401 C 121.107 125.913,121.633 126.420,122.044 126.527 C 122.454 126.635,122.968 127.190,123.185 127.761 C 123.402 128.333,123.859 128.800,124.199 128.800 C 124.539 128.800,125.021 129.247,125.269 129.792 C 125.518 130.338,126.065 130.894,126.485 131.027 C 126.905 131.160,127.447 131.704,127.689 132.235 C 127.930 132.766,128.373 133.200,128.673 133.200 C 128.972 133.200,129.421 133.647,129.669 134.192 C 129.918 134.738,130.464 135.293,130.884 135.427 C 131.303 135.560,131.811 136.103,132.013 136.634 C 132.233 137.212,132.702 137.600,133.182 137.600 C 133.711 137.600,134.073 137.952,134.244 138.632 C 134.386 139.199,134.860 139.796,135.296 139.957 C 136.875 140.541,137.339 142.708,136.029 143.385 C 135.406 143.707,134.795 144.237,134.669 144.563 C 134.544 144.889,133.758 145.279,132.921 145.431 C 131.381 145.709,129.965 146.291,129.600 146.796 C 129.490 146.949,126.329 147.237,122.575 147.438 C 115.962 147.791,115.710 147.837,114.444 148.901 C 113.726 149.506,112.848 150.000,112.494 150.000 C 111.582 150.000,107.636 154.376,107.341 155.714 C 107.205 156.327,106.743 157.075,106.314 157.375 C 105.469 157.967,104.825 160.140,104.810 162.451 C 104.804 163.249,104.530 164.126,104.200 164.400 C 103.430 165.039,103.422 167.612,104.187 168.624 C 104.510 169.051,104.785 170.030,104.797 170.800 C 104.834 173.156,105.515 175.372,106.379 175.949 C 106.830 176.251,107.200 176.932,107.200 177.462 C 107.200 178.031,107.774 179.001,108.600 179.827 C 109.370 180.597,110.000 181.396,110.000 181.603 C 110.000 181.810,110.585 182.279,111.300 182.646 C 112.015 183.013,113.109 183.737,113.731 184.256 C 114.353 184.775,115.213 185.200,115.643 185.200 C 116.073 185.200,116.524 185.457,116.645 185.772 C 117.425 187.805,133.200 187.822,133.200 185.790 C 133.200 185.521,134.018 185.197,135.058 185.054 C 136.080 184.914,137.295 184.444,137.758 184.011 C 138.221 183.577,139.455 182.421,140.500 181.443 C 141.545 180.464,142.400 179.346,142.400 178.957 C 142.400 178.569,142.782 177.844,143.250 177.347 C 144.400 176.122,144.762 173.922,144.785 168.000 C 144.803 163.404,144.884 162.871,145.790 161.400 C 146.332 160.520,146.781 159.474,146.788 159.077 C 146.794 158.679,147.383 157.599,148.096 156.677 C 148.809 155.754,149.414 154.949,149.442 154.888 C 149.593 154.546,152.038 156.311,152.228 156.899 C 152.352 157.284,152.876 157.704,153.392 157.834 C 153.915 157.965,154.430 158.467,154.556 158.966 C 154.680 159.459,155.220 160.063,155.756 160.307 C 156.292 160.551,156.848 161.122,156.992 161.576 C 157.136 162.029,157.428 162.400,157.642 162.400 C 158.127 162.400,161.600 165.942,161.600 166.437 C 161.600 166.637,161.865 166.800,162.190 166.800 C 162.514 166.800,163.059 167.340,163.400 168.000 C 163.741 168.660,164.290 169.200,164.619 169.200 C 164.948 169.200,165.413 169.630,165.653 170.156 C 165.892 170.682,166.518 171.308,167.044 171.547 C 167.570 171.787,168.000 172.252,168.000 172.581 C 168.000 172.910,168.540 173.459,169.200 173.800 C 169.860 174.141,170.400 174.657,170.400 174.946 C 170.400 175.235,170.834 175.670,171.365 175.911 C 171.896 176.153,172.448 176.722,172.592 177.176 C 172.736 177.629,173.019 178.000,173.221 178.000 C 173.641 178.000,177.200 181.572,177.200 181.994 C 177.200 182.147,177.634 182.470,178.165 182.711 C 178.696 182.953,179.242 183.503,179.379 183.932 C 179.515 184.362,179.978 184.806,180.408 184.918 C 180.838 185.031,181.368 185.590,181.585 186.161 C 181.802 186.733,182.259 187.200,182.599 187.200 C 182.939 187.200,183.424 187.654,183.677 188.210 C 183.930 188.765,184.541 189.320,185.034 189.444 C 185.543 189.572,186.035 190.087,186.173 190.635 C 186.306 191.166,186.690 191.600,187.026 191.600 C 187.362 191.600,187.941 192.130,188.313 192.778 C 188.685 193.426,189.307 194.039,189.695 194.141 C 190.083 194.242,190.400 194.573,190.400 194.876 C 190.400 195.179,190.940 195.746,191.600 196.136 C 192.260 196.526,192.800 197.110,192.800 197.433 C 192.800 197.756,193.235 198.185,193.766 198.387 C 194.297 198.589,194.849 199.124,194.992 199.576 C 195.136 200.028,195.678 200.505,196.197 200.635 C 196.716 200.765,197.452 201.216,197.833 201.636 C 198.213 202.056,198.770 202.400,199.071 202.400 C 199.371 202.400,199.822 202.850,200.073 203.400 C 200.323 203.950,200.653 204.400,200.805 204.400 C 201.008 204.400,221.184 224.440,225.074 228.505 C 225.334 228.777,226.864 230.290,228.474 231.867 C 230.083 233.443,231.688 235.063,232.040 235.467 C 235.847 239.827,240.535 243.200,242.789 243.200 C 247.780 243.200,249.327 239.831,249.771 228.000 C 249.851 225.854,250.128 224.549,250.742 223.415 C 251.214 222.544,251.600 221.588,251.600 221.291 C 251.600 220.315,255.760 216.324,257.800 215.343 C 258.900 214.814,260.250 214.118,260.800 213.797 C 261.350 213.475,262.292 213.209,262.894 213.206 C 263.496 213.203,264.792 212.985,265.773 212.723 C 268.030 212.119,274.910 213.250,276.217 214.440 C 276.667 214.849,277.657 215.399,278.417 215.662 C 280.301 216.314,284.983 221.319,285.649 223.393 C 285.933 224.277,286.507 225.789,286.925 226.754 C 287.893 228.989,287.724 235.883,286.624 239.000 C 285.042 243.483,283.106 246.753,281.619 247.457 C 280.839 247.826,279.750 248.447,279.200 248.836 C 277.858 249.784,273.976 250.527,270.856 250.432 C 268.999 250.376,268.121 250.528,267.603 250.997 C 267.115 251.439,265.946 251.678,263.865 251.762 C 260.206 251.910,259.382 252.388,257.848 255.256 L 256.695 257.409 257.933 260.005 C 259.039 262.322,260.813 264.237,274.486 277.874 C 282.909 286.275,290.100 293.475,290.466 293.874 C 290.833 294.273,292.782 296.220,294.797 298.200 C 296.813 300.180,298.815 302.288,299.247 302.884 C 300.032 303.968,300.033 303.968,301.227 303.242 C 302.962 302.187,309.983 294.444,313.600 289.597 C 314.150 288.860,314.966 287.794,315.413 287.229 C 316.654 285.657,320.078 280.564,321.205 278.613 C 321.757 277.656,322.484 276.542,322.821 276.137 C 323.157 275.732,323.750 274.770,324.140 274.000 C 324.530 273.230,325.461 271.520,326.210 270.200 C 328.233 266.633,332.800 257.175,332.800 256.552 C 332.800 256.352,333.155 255.526,333.588 254.717 C 334.022 253.908,334.586 252.381,334.842 251.323 C 335.098 250.265,335.628 248.860,336.019 248.200 C 336.410 247.540,336.919 245.973,337.149 244.717 C 337.379 243.461,337.913 241.751,338.336 240.917 C 338.759 240.083,339.235 238.410,339.393 237.200 C 339.552 235.990,340.030 233.950,340.456 232.668 C 340.882 231.385,341.499 228.235,341.828 225.668 C 342.156 223.100,342.519 220.734,342.635 220.408 C 344.479 215.218,344.479 183.969,342.635 178.792 C 342.519 178.466,342.137 175.955,341.787 173.211 C 341.437 170.467,340.977 168.013,340.765 167.758 C 340.553 167.503,340.035 165.485,339.614 163.273 C 339.193 161.062,338.589 158.746,338.273 158.126 C 337.956 157.507,337.496 156.049,337.250 154.887 C 337.004 153.725,336.464 152.105,336.050 151.287 C 335.636 150.469,335.165 149.170,335.002 148.400 C 334.839 147.630,334.187 145.883,333.553 144.517 C 332.919 143.151,332.400 141.899,332.400 141.734 C 332.400 141.569,331.527 139.627,330.460 137.417 C 329.393 135.208,328.309 132.950,328.052 132.400 C 327.345 130.890,323.610 124.371,321.481 120.931 C 320.027 118.582,316.458 113.331,315.689 112.412 C 313.775 110.120,310.847 106.443,310.291 105.630 C 309.926 105.097,308.226 103.135,306.514 101.269 C 304.801 99.403,303.219 97.630,302.999 97.329 C 302.778 97.028,301.968 96.690,301.199 96.579 C 299.813 96.378,299.619 96.557,279.800 116.469 M182.557 269.033 C 182.691 269.381,182.803 269.876,182.806 270.133 C 182.814 270.756,183.586 269.549,183.594 268.900 C 183.597 268.625,183.311 268.400,182.957 268.400 C 182.535 268.400,182.398 268.618,182.557 269.033 M182.683 272.404 C 182.548 272.920,182.673 273.200,183.037 273.200 C 183.656 273.200,183.811 272.177,183.245 271.828 C 183.050 271.708,182.797 271.967,182.683 272.404 " stroke="none" fill="#549cd3" fill-rule="evenodd"></path><path id="path3" d="M186.800 0.573 C 186.800 1.535,185.265 1.787,174.577 2.583 C 170.055 2.920,165.816 3.442,164.861 3.778 C 163.930 4.107,161.106 4.646,158.586 4.977 C 156.065 5.307,153.508 5.833,152.902 6.145 C 152.296 6.457,150.450 6.919,148.800 7.172 C 147.150 7.425,144.689 8.075,143.332 8.616 C 141.974 9.157,140.354 9.601,139.732 9.602 C 139.109 9.604,138.060 9.895,137.400 10.249 C 136.740 10.604,134.885 11.230,133.278 11.640 C 131.671 12.050,129.965 12.659,129.489 12.993 C 129.012 13.327,128.344 13.600,128.005 13.600 C 127.666 13.600,126.311 14.120,124.994 14.756 C 123.677 15.392,121.970 16.042,121.200 16.199 C 120.430 16.357,119.240 16.826,118.556 17.241 C 117.872 17.656,116.531 18.272,115.576 18.608 C 114.621 18.945,113.561 19.454,113.220 19.739 C 112.879 20.025,111.838 20.498,110.906 20.791 C 109.974 21.084,108.911 21.656,108.544 22.062 C 108.177 22.468,107.678 22.800,107.437 22.800 C 106.990 22.800,101.670 25.521,98.400 27.421 C 91.926 31.184,90.477 32.081,88.907 33.300 C 88.128 33.905,87.330 34.400,87.134 34.400 C 86.937 34.400,85.655 35.271,84.284 36.335 C 82.913 37.399,81.344 38.509,80.799 38.801 C 80.253 39.093,78.777 40.157,77.518 41.166 C 76.259 42.175,74.457 43.595,73.514 44.323 C 70.636 46.543,69.275 47.711,67.008 49.900 C 65.813 51.055,64.705 52.000,64.546 52.000 C 64.387 52.000,63.695 52.585,63.008 53.300 C 62.320 54.015,60.598 55.701,59.179 57.047 C 57.108 59.013,52.101 64.204,49.319 67.270 C 49.055 67.561,48.605 68.032,48.319 68.316 C 47.421 69.208,45.652 71.296,43.164 74.400 C 41.841 76.050,40.404 77.825,39.969 78.346 C 39.535 78.866,38.975 79.676,38.724 80.146 C 38.474 80.615,38.019 81.184,37.714 81.410 C 37.408 81.635,36.763 82.469,36.279 83.263 C 34.675 85.897,33.317 87.805,32.654 88.355 C 32.294 88.654,32.000 89.122,32.000 89.395 C 32.000 89.668,31.595 90.400,31.100 91.021 C 29.690 92.790,24.981 100.652,23.326 104.000 C 22.945 104.770,22.333 105.760,21.966 106.200 C 21.599 106.640,21.074 107.720,20.800 108.600 C 20.526 109.480,19.986 110.560,19.600 111.000 C 19.214 111.440,18.674 112.520,18.399 113.400 C 18.124 114.280,17.639 115.298,17.322 115.662 C 17.004 116.026,16.493 117.160,16.185 118.182 C 15.878 119.204,15.285 120.526,14.869 121.120 C 14.452 121.714,13.995 122.830,13.854 123.600 C 13.713 124.370,13.148 125.886,12.599 126.968 C 12.049 128.050,11.600 129.137,11.600 129.383 C 11.600 129.629,11.252 130.514,10.826 131.349 C 10.400 132.184,9.853 133.797,9.611 134.934 C 9.368 136.070,8.828 137.720,8.410 138.600 C 7.992 139.480,7.446 141.370,7.196 142.800 C 6.947 144.230,6.468 145.825,6.132 146.345 C 5.797 146.864,5.262 148.908,4.944 150.885 C 4.626 152.863,4.110 154.871,3.797 155.348 C 3.485 155.824,3.050 157.798,2.830 159.733 C 2.154 165.678,1.567 168.084,0.737 168.300 C -0.424 168.604,-0.414 229.799,0.748 230.102 C 1.642 230.336,2.217 232.520,2.807 237.924 C 3.030 239.973,3.467 242.043,3.776 242.524 C 4.086 243.006,4.630 245.108,4.986 247.195 C 5.342 249.283,5.883 251.372,6.189 251.839 C 6.494 252.305,6.946 253.837,7.192 255.243 C 7.439 256.650,7.934 258.430,8.293 259.200 C 8.651 259.970,9.261 261.680,9.647 263.000 C 10.699 266.600,11.939 269.967,13.027 272.179 C 13.562 273.267,14.000 274.392,14.000 274.678 C 14.000 274.965,14.440 276.055,14.977 277.100 C 16.259 279.592,18.212 283.865,18.817 285.500 C 19.081 286.215,19.441 286.800,19.616 286.800 C 19.792 286.800,20.243 287.745,20.618 288.900 C 20.993 290.055,21.620 291.360,22.012 291.800 C 22.403 292.240,23.014 293.230,23.369 294.000 C 23.725 294.770,24.629 296.390,25.380 297.600 C 26.131 298.810,27.107 300.565,27.550 301.500 C 27.993 302.435,28.509 303.200,28.697 303.200 C 28.885 303.200,29.267 303.830,29.546 304.600 C 29.824 305.370,30.187 306.000,30.352 306.000 C 30.517 306.000,31.077 306.765,31.595 307.700 C 32.558 309.436,33.208 310.359,35.500 313.241 C 36.215 314.140,36.800 315.030,36.800 315.220 C 36.800 315.409,37.205 316.006,37.700 316.548 C 38.195 317.089,39.590 318.833,40.800 320.424 C 42.010 322.014,43.585 323.987,44.300 324.806 C 45.015 325.626,45.600 326.393,45.600 326.511 C 45.600 327.244,63.722 345.486,67.700 348.758 C 69.405 350.160,70.800 351.451,70.800 351.627 C 70.800 351.802,71.131 352.051,71.535 352.179 C 71.939 352.308,72.844 352.905,73.545 353.506 C 74.246 354.108,75.552 355.140,76.447 355.800 C 77.342 356.460,78.515 357.405,79.055 357.900 C 79.595 358.395,80.129 358.800,80.242 358.800 C 80.355 358.800,81.240 359.385,82.208 360.100 C 86.040 362.931,90.196 365.647,91.700 366.303 C 92.305 366.567,92.800 366.942,92.800 367.137 C 92.800 367.332,93.609 367.800,94.598 368.178 C 95.587 368.556,96.532 369.086,96.698 369.356 C 96.864 369.625,97.720 370.214,98.600 370.664 C 100.273 371.519,106.931 375.011,109.000 376.119 C 111.431 377.421,116.220 379.600,116.650 379.600 C 116.893 379.600,117.521 379.936,118.046 380.346 C 118.571 380.756,120.080 381.404,121.400 381.785 C 122.720 382.167,123.907 382.651,124.037 382.861 C 124.167 383.071,125.337 383.517,126.637 383.852 C 127.937 384.187,129.433 384.740,129.962 385.080 C 130.491 385.421,131.971 385.944,133.249 386.242 C 134.528 386.541,136.253 387.148,137.081 387.592 C 137.910 388.037,139.091 388.400,139.707 388.400 C 140.322 388.400,141.945 388.781,143.313 389.247 C 144.681 389.712,147.377 390.427,149.304 390.835 C 151.231 391.243,153.142 391.755,153.550 391.973 C 153.958 392.192,155.982 392.573,158.046 392.821 C 160.111 393.068,163.061 393.614,164.601 394.033 C 166.260 394.484,170.583 395.033,175.201 395.381 C 179.491 395.703,183.720 396.184,184.600 396.450 C 186.707 397.086,206.656 397.089,209.200 396.453 C 210.190 396.206,214.442 395.736,218.649 395.409 C 222.856 395.082,227.446 394.525,228.849 394.171 C 230.252 393.817,233.190 393.275,235.377 392.967 C 237.564 392.660,240.084 392.141,240.977 391.815 C 241.870 391.490,244.019 390.941,245.753 390.597 C 247.488 390.253,249.231 389.798,249.627 389.586 C 250.023 389.374,251.623 388.932,253.182 388.604 C 254.742 388.276,256.689 387.667,257.509 387.252 C 258.329 386.836,259.788 386.365,260.751 386.204 C 261.715 386.044,263.065 385.587,263.751 385.188 C 264.438 384.790,265.772 384.261,266.716 384.013 C 267.660 383.764,269.261 383.119,270.275 382.580 C 271.289 382.041,272.407 381.599,272.760 381.598 C 273.112 381.597,274.120 381.152,275.000 380.610 C 275.880 380.068,276.865 379.619,277.188 379.612 C 278.032 379.595,288.642 374.208,295.400 370.366 C 296.500 369.741,298.036 368.908,298.812 368.515 C 299.589 368.122,300.489 367.574,300.812 367.298 C 301.770 366.480,306.276 363.600,306.598 363.600 C 306.761 363.600,307.481 363.105,308.198 362.500 C 308.914 361.895,310.784 360.500,312.353 359.400 C 325.539 350.153,340.678 335.704,351.328 322.200 C 353.410 319.560,355.493 316.989,355.957 316.486 C 356.421 315.983,356.800 315.429,356.800 315.255 C 356.800 315.081,357.790 313.648,359.000 312.071 C 360.210 310.494,361.203 309.068,361.207 308.902 C 361.211 308.736,362.110 307.340,363.206 305.800 C 364.301 304.260,365.569 302.194,366.024 301.208 C 366.478 300.222,366.998 299.322,367.179 299.208 C 367.360 299.094,367.908 298.145,368.398 297.100 C 368.887 296.055,369.434 295.200,369.613 295.200 C 369.792 295.200,370.155 294.525,370.420 293.700 C 370.684 292.875,371.120 291.930,371.388 291.600 C 371.656 291.270,372.997 288.660,374.368 285.800 C 375.739 282.940,377.379 279.520,378.012 278.200 C 378.645 276.880,379.347 275.080,379.571 274.200 C 379.796 273.320,380.235 272.238,380.546 271.795 C 380.858 271.352,381.388 270.062,381.725 268.929 C 382.061 267.796,382.603 266.448,382.928 265.934 C 383.254 265.420,383.718 264.049,383.959 262.887 C 384.200 261.725,384.731 260.105,385.140 259.287 C 385.548 258.469,386.106 256.632,386.380 255.205 C 386.654 253.778,387.134 252.114,387.447 251.508 C 387.761 250.902,388.288 248.855,388.618 246.959 C 388.949 245.062,389.385 243.202,389.587 242.824 C 389.789 242.447,390.323 239.902,390.774 237.169 C 391.225 234.436,391.779 231.570,392.006 230.800 C 392.232 230.030,392.690 226.070,393.024 222.000 C 393.358 217.930,393.893 212.980,394.214 211.000 C 395.024 205.996,395.011 191.558,394.192 187.335 C 393.858 185.611,393.318 180.719,392.993 176.464 C 392.667 172.209,392.135 167.799,391.809 166.664 C 391.483 165.529,390.940 162.738,390.602 160.462 C 390.264 158.187,389.815 156.002,389.604 155.607 C 389.393 155.212,388.951 153.384,388.624 151.545 C 388.296 149.705,387.679 147.300,387.253 146.199 C 386.827 145.099,386.350 143.299,386.192 142.199 C 386.035 141.100,385.589 139.660,385.202 139.000 C 384.814 138.340,384.275 136.810,384.004 135.600 C 383.732 134.390,383.246 132.980,382.923 132.466 C 382.600 131.952,382.065 130.602,381.734 129.466 C 381.403 128.330,380.889 127.020,380.593 126.555 C 380.296 126.090,379.791 124.703,379.469 123.472 C 379.148 122.241,378.506 120.752,378.042 120.163 C 377.579 119.574,377.200 118.817,377.200 118.482 C 377.200 117.817,372.176 107.376,371.386 106.400 C 371.120 106.070,370.684 105.125,370.420 104.300 C 370.155 103.475,369.793 102.800,369.616 102.800 C 369.439 102.800,368.808 101.855,368.214 100.700 C 365.946 96.292,365.182 95.022,364.600 94.696 C 364.270 94.511,364.000 94.172,364.000 93.942 C 364.000 93.594,361.303 89.418,356.953 83.030 C 356.487 82.346,355.812 81.542,355.453 81.244 C 355.094 80.946,354.800 80.487,354.800 80.223 C 354.800 79.960,354.395 79.366,353.900 78.903 C 353.405 78.441,352.370 77.208,351.600 76.164 C 350.830 75.120,349.805 73.847,349.322 73.336 C 348.839 72.826,348.299 72.153,348.122 71.842 C 346.081 68.253,327.657 50.320,319.600 44.078 C 315.512 40.912,315.115 40.601,314.257 39.901 C 312.937 38.824,310.728 37.305,309.400 36.563 C 308.740 36.194,308.065 35.662,307.900 35.382 C 307.735 35.101,306.790 34.479,305.800 34.000 C 304.810 33.521,304.000 32.992,304.000 32.825 C 304.000 32.658,303.272 32.193,302.381 31.791 C 301.491 31.390,300.636 30.868,300.481 30.631 C 300.327 30.394,299.570 29.874,298.800 29.476 C 298.030 29.077,296.320 28.129,295.000 27.369 C 293.680 26.609,291.842 25.625,290.917 25.182 C 289.991 24.739,289.128 24.207,289.000 24.000 C 288.871 23.792,288.059 23.410,287.194 23.151 C 286.329 22.892,285.293 22.373,284.891 21.999 C 284.488 21.624,283.223 21.006,282.080 20.626 C 280.936 20.247,280.000 19.775,280.000 19.579 C 280.000 19.383,279.029 18.940,277.843 18.595 C 276.656 18.250,275.301 17.634,274.830 17.226 C 274.360 16.818,273.305 16.362,272.487 16.212 C 271.669 16.063,270.248 15.504,269.329 14.970 C 268.410 14.437,267.330 13.998,266.929 13.996 C 266.528 13.994,265.235 13.543,264.055 12.994 C 262.876 12.445,260.896 11.741,259.655 11.431 C 258.415 11.120,256.590 10.599,255.600 10.272 C 249.581 8.287,247.093 7.584,244.600 7.167 C 243.060 6.909,241.305 6.446,240.699 6.139 C 240.094 5.831,237.574 5.319,235.099 5.001 C 232.625 4.684,229.700 4.142,228.600 3.798 C 227.500 3.454,224.170 2.995,221.200 2.779 C 208.728 1.871,206.800 1.576,206.800 0.576 C 206.800 0.090,205.240 0.000,196.800 0.000 C 188.387 0.000,186.800 0.091,186.800 0.573 M214.600 52.513 C 215.920 52.857,218.980 53.327,221.400 53.556 C 223.820 53.785,226.790 54.322,228.000 54.750 C 229.210 55.177,231.280 55.654,232.600 55.810 C 233.920 55.965,235.630 56.429,236.400 56.840 C 237.170 57.250,239.131 57.855,240.758 58.184 C 242.385 58.512,244.005 59.035,244.358 59.346 C 244.711 59.656,245.977 60.115,247.170 60.366 C 248.364 60.617,249.894 61.157,250.570 61.568 C 251.247 61.978,252.430 62.440,253.200 62.594 C 253.970 62.749,255.230 63.291,256.000 63.800 C 256.770 64.309,257.973 64.843,258.672 64.988 C 259.372 65.133,260.151 65.500,260.403 65.804 C 260.655 66.108,261.746 66.650,262.826 67.009 C 263.907 67.368,264.892 67.825,265.015 68.025 C 265.139 68.224,266.086 68.817,267.120 69.341 C 271.567 71.595,272.622 72.192,273.000 72.669 C 273.220 72.947,274.063 73.447,274.873 73.781 C 275.683 74.115,276.460 74.573,276.600 74.800 C 276.740 75.026,277.517 75.576,278.327 76.022 C 280.073 76.982,282.212 78.435,283.600 79.603 C 284.150 80.066,285.500 81.104,286.600 81.910 C 288.300 83.155,291.363 85.653,294.600 88.434 C 297.222 90.687,301.600 95.468,301.600 96.079 C 301.600 96.476,301.861 96.800,302.180 96.800 C 302.499 96.800,302.904 97.047,303.080 97.349 C 303.256 97.651,304.801 99.420,306.514 101.280 C 308.226 103.139,309.926 105.097,310.291 105.630 C 310.847 106.443,313.775 110.120,315.689 112.412 C 316.458 113.331,320.027 118.582,321.481 120.931 C 323.610 124.371,327.345 130.890,328.052 132.400 C 328.309 132.950,329.393 135.208,330.460 137.417 C 331.527 139.627,332.400 141.569,332.400 141.734 C 332.400 141.899,332.919 143.151,333.553 144.517 C 334.187 145.883,334.839 147.630,335.002 148.400 C 335.165 149.170,335.636 150.469,336.050 151.287 C 336.464 152.105,337.004 153.725,337.250 154.887 C 337.496 156.049,337.956 157.507,338.273 158.126 C 338.589 158.746,339.193 161.062,339.614 163.273 C 340.035 165.485,340.553 167.503,340.765 167.758 C 340.977 168.013,341.437 170.467,341.787 173.211 C 342.137 175.955,342.519 178.466,342.635 178.792 C 344.479 183.969,344.479 215.218,342.635 220.408 C 342.519 220.734,342.156 223.100,341.828 225.668 C 341.499 228.235,340.882 231.385,340.456 232.668 C 340.030 233.950,339.552 235.990,339.393 237.200 C 339.235 238.410,338.759 240.083,338.336 240.917 C 337.913 241.751,337.379 243.461,337.149 244.717 C 336.919 245.973,336.410 247.540,336.019 248.200 C 335.628 248.860,335.098 250.265,334.842 251.323 C 334.586 252.381,334.022 253.908,333.588 254.717 C 333.155 255.526,332.800 256.352,332.800 256.552 C 332.800 257.175,328.233 266.633,326.210 270.200 C 325.461 271.520,324.530 273.230,324.140 274.000 C 323.750 274.770,323.157 275.732,322.821 276.137 C 322.484 276.542,321.757 277.656,321.205 278.613 C 320.078 280.564,316.654 285.657,315.413 287.229 C 314.966 287.794,314.150 288.862,313.600 289.602 C 311.686 292.175,306.443 298.215,304.129 300.513 C 302.848 301.785,300.278 304.364,298.417 306.245 C 296.557 308.126,294.577 309.909,294.017 310.207 C 293.458 310.505,291.979 311.706,290.732 312.875 C 288.272 315.180,283.006 319.200,282.445 319.200 C 282.254 319.200,281.875 319.468,281.603 319.796 C 280.964 320.567,276.524 323.600,276.035 323.600 C 275.830 323.600,275.124 324.052,274.466 324.605 C 273.809 325.158,272.638 325.876,271.863 326.199 C 271.088 326.523,270.343 326.968,270.207 327.188 C 270.071 327.408,269.114 328.005,268.080 328.514 C 267.046 329.023,263.860 330.625,261.000 332.075 C 258.140 333.524,255.271 334.832,254.624 334.981 C 253.978 335.131,252.988 335.574,252.424 335.966 C 251.861 336.358,250.521 336.894,249.446 337.159 C 248.372 337.423,246.842 337.968,246.046 338.371 C 245.251 338.774,243.790 339.233,242.800 339.390 C 241.810 339.547,240.378 340.035,239.617 340.474 C 238.856 340.912,237.146 341.442,235.817 341.650 C 234.488 341.859,232.395 342.372,231.167 342.791 C 229.939 343.210,227.329 343.754,225.367 344.001 C 223.405 344.247,221.260 344.636,220.600 344.864 C 215.778 346.532,185.861 347.063,177.400 345.630 C 176.080 345.407,172.750 344.865,170.000 344.426 C 167.250 343.987,163.886 343.255,162.525 342.798 C 161.163 342.342,159.093 341.862,157.925 341.733 C 156.756 341.603,155.260 341.174,154.600 340.779 C 153.940 340.385,152.181 339.779,150.692 339.435 C 149.202 339.090,147.582 338.545,147.092 338.224 C 146.601 337.903,145.424 337.516,144.474 337.365 C 143.525 337.214,142.134 336.672,141.383 336.162 C 140.631 335.652,139.338 335.052,138.508 334.828 C 136.492 334.283,124.497 328.231,123.409 327.209 C 122.936 326.764,122.374 326.400,122.161 326.400 C 121.947 326.400,120.789 325.785,119.587 325.034 C 118.384 324.282,116.590 323.160,115.600 322.540 C 112.228 320.428,105.263 315.139,102.401 312.516 C 101.391 311.590,99.848 310.313,98.973 309.679 C 98.098 309.045,96.396 307.452,95.191 306.139 C 93.986 304.826,92.393 303.329,91.651 302.814 C 90.119 301.749,88.307 299.836,85.025 295.821 C 83.776 294.293,82.394 292.673,81.953 292.221 C 81.074 291.319,79.111 288.789,77.688 286.724 C 77.186 285.996,76.336 284.770,75.799 284.000 C 75.262 283.230,74.341 281.880,73.752 281.000 C 73.163 280.120,72.548 279.310,72.385 279.200 C 72.223 279.090,71.803 278.370,71.453 277.600 C 71.102 276.830,70.120 275.102,69.269 273.760 C 67.614 271.150,63.080 262.321,62.587 260.748 C 62.424 260.227,61.959 259.377,61.555 258.859 C 61.152 258.342,60.709 257.262,60.573 256.459 C 60.437 255.657,59.989 254.521,59.578 253.936 C 59.166 253.351,58.617 252.001,58.356 250.936 C 58.096 249.871,57.607 248.460,57.270 247.800 C 56.644 246.576,55.254 241.868,54.140 237.200 C 53.799 235.770,53.196 233.520,52.799 232.200 C 52.403 230.880,51.960 228.540,51.815 227.000 C 51.671 225.460,51.384 223.390,51.179 222.400 C 50.974 221.410,50.544 219.340,50.225 217.800 C 48.864 211.230,49.091 186.926,50.582 179.600 C 50.918 177.950,51.365 175.160,51.574 173.400 C 51.784 171.640,52.227 169.300,52.559 168.200 C 52.890 167.100,53.456 164.760,53.815 163.000 C 54.175 161.240,54.798 158.990,55.200 158.000 C 55.602 157.010,56.032 155.615,56.156 154.900 C 56.279 154.185,56.724 152.835,57.145 151.900 C 57.565 150.965,58.037 149.570,58.194 148.800 C 58.350 148.030,58.911 146.648,59.439 145.729 C 59.968 144.810,60.400 143.744,60.400 143.361 C 60.400 142.978,60.940 141.708,61.600 140.538 C 62.260 139.369,62.800 138.075,62.800 137.662 C 62.800 137.249,63.232 136.275,63.760 135.497 C 64.288 134.719,64.847 133.659,65.003 133.141 C 65.158 132.624,65.784 131.390,66.393 130.400 C 67.917 127.922,70.436 123.510,71.403 121.624 C 71.845 120.763,72.589 119.640,73.057 119.129 C 73.525 118.618,74.031 117.795,74.181 117.300 C 74.331 116.805,74.607 116.400,74.794 116.400 C 74.982 116.400,75.543 115.725,76.041 114.900 C 77.021 113.279,78.414 111.410,79.461 110.310 C 79.823 109.931,80.407 109.184,80.759 108.652 C 81.978 106.809,85.919 102.187,88.953 99.042 C 90.629 97.305,92.000 95.756,92.000 95.600 C 92.000 94.347,102.892 84.314,106.247 82.478 C 106.771 82.191,107.200 81.783,107.200 81.572 C 107.200 81.360,107.830 80.887,108.600 80.519 C 109.370 80.152,110.000 79.709,110.000 79.534 C 110.000 79.359,110.675 78.845,111.500 78.392 C 113.091 77.518,115.419 75.949,116.376 75.107 C 117.126 74.446,120.223 72.607,121.997 71.769 C 122.765 71.406,123.904 70.679,124.527 70.154 C 125.151 69.629,125.963 69.197,126.331 69.193 C 126.699 69.189,127.792 68.649,128.760 67.993 C 129.728 67.337,130.755 66.800,131.042 66.800 C 131.330 66.800,132.228 66.350,133.038 65.800 C 133.849 65.250,134.902 64.800,135.378 64.800 C 135.855 64.800,136.830 64.368,137.546 63.840 C 138.261 63.312,139.506 62.757,140.311 62.606 C 141.117 62.454,142.517 61.896,143.423 61.365 C 144.329 60.834,145.523 60.400,146.076 60.400 C 146.628 60.400,147.910 59.959,148.922 59.421 C 149.935 58.882,151.887 58.238,153.260 57.989 C 154.633 57.740,156.396 57.214,157.178 56.821 C 157.960 56.427,160.130 55.886,162.000 55.617 C 163.870 55.349,165.580 54.996,165.800 54.834 C 166.571 54.267,169.509 53.600,171.246 53.598 C 172.211 53.596,174.080 53.403,175.400 53.169 C 183.875 51.661,184.151 51.644,198.200 51.765 C 209.328 51.861,212.692 52.014,214.600 52.513 " stroke="none" fill="#d45949" fill-rule="evenodd"></path><path id="path4" d="M195.400 202.886 C 194.960 203.140,193.923 204.080,193.096 204.974 C 192.269 205.868,191.405 206.780,191.176 207.000 C 190.576 207.577,189.207 208.949,188.880 209.302 C 188.726 209.468,186.215 211.957,183.300 214.833 C 180.385 217.709,178.000 220.216,178.000 220.404 C 178.000 220.592,177.630 220.864,177.177 221.007 C 176.724 221.151,176.189 221.703,175.987 222.234 C 175.785 222.765,175.439 223.200,175.217 223.200 C 174.996 223.200,172.563 225.495,169.811 228.300 C 167.059 231.105,164.644 233.553,164.444 233.740 C 164.244 233.927,163.747 234.413,163.340 234.820 C 162.933 235.227,162.420 235.740,162.200 235.960 C 161.980 236.180,161.386 236.774,160.880 237.280 C 160.374 237.786,159.834 238.333,159.680 238.496 C 159.526 238.659,158.656 239.480,157.747 240.320 C 156.838 241.159,155.711 242.556,155.243 243.423 C 154.775 244.290,154.169 245.338,153.896 245.751 C 153.504 246.345,153.504 246.541,153.892 246.682 C 154.162 246.780,154.770 247.549,155.243 248.390 C 156.645 250.885,157.120 251.009,166.738 251.398 C 170.271 251.541,171.556 251.752,172.538 252.348 C 173.232 252.769,174.430 253.246,175.200 253.407 C 176.727 253.727,179.489 255.978,180.328 257.586 C 180.618 258.143,181.099 258.869,181.397 259.199 C 181.960 259.824,182.657 261.602,184.054 265.971 C 185.024 269.006,184.970 274.126,183.944 276.400 C 182.799 278.937,182.400 280.030,182.400 280.625 C 182.400 281.210,179.638 285.691,179.135 285.922 C 178.989 285.989,178.430 286.451,177.892 286.949 C 177.355 287.448,176.304 288.102,175.557 288.404 C 174.811 288.706,174.059 289.183,173.887 289.465 C 173.714 289.746,172.814 290.173,171.887 290.413 C 170.959 290.653,169.684 291.219,169.054 291.670 C 168.045 292.394,167.662 292.445,165.854 292.100 C 164.724 291.885,162.594 291.795,161.120 291.900 C 158.878 292.059,158.218 291.953,157.073 291.245 C 156.321 290.780,155.437 290.400,155.108 290.400 C 154.779 290.400,153.831 289.860,153.000 289.200 C 152.169 288.540,151.259 288.000,150.976 288.000 C 150.216 288.000,148.083 286.091,147.781 285.141 C 147.638 284.688,147.088 283.681,146.560 282.903 C 146.032 282.125,145.600 281.144,145.600 280.722 C 145.600 280.301,145.218 279.118,144.752 278.094 C 144.048 276.550,143.968 275.950,144.282 274.578 C 144.570 273.320,144.489 272.212,143.947 269.961 C 143.555 268.333,143.226 266.334,143.217 265.520 C 143.188 262.992,139.697 260.608,137.189 261.404 C 136.402 261.653,133.200 264.700,133.200 265.199 C 133.200 265.349,132.766 265.670,132.235 265.911 C 131.704 266.153,131.160 266.695,131.027 267.115 C 130.894 267.535,130.338 268.082,129.792 268.331 C 129.247 268.579,128.800 269.050,128.800 269.377 C 128.800 269.704,128.467 270.150,128.061 270.367 C 127.094 270.885,120.000 277.861,120.000 278.294 C 120.000 278.477,119.460 278.946,118.800 279.336 C 118.140 279.726,117.600 280.276,117.600 280.558 C 117.600 280.841,117.166 281.270,116.635 281.511 C 116.104 281.753,115.560 282.295,115.427 282.715 C 115.294 283.135,114.754 283.675,114.227 283.915 C 113.700 284.155,113.160 284.695,113.027 285.115 C 112.894 285.535,112.354 286.075,111.827 286.315 C 111.300 286.555,110.752 287.122,110.608 287.576 C 110.464 288.029,110.215 288.400,110.055 288.400 C 109.653 288.400,101.600 296.356,101.600 296.752 C 101.600 296.928,101.150 297.277,100.600 297.527 C 100.050 297.778,99.599 298.212,99.597 298.491 C 99.596 298.771,99.056 299.307,98.397 299.681 C 97.739 300.056,97.200 300.629,97.200 300.954 C 97.200 301.280,96.837 301.661,96.393 301.802 C 95.754 302.005,94.400 304.225,94.400 305.071 C 94.400 305.733,99.200 310.000,99.945 310.000 C 100.500 310.000,101.077 310.418,101.472 311.106 C 101.821 311.714,102.847 312.781,103.753 313.478 C 104.659 314.175,106.017 315.297,106.772 315.972 C 107.527 316.648,108.399 317.200,108.712 317.200 C 109.024 317.200,109.788 317.695,110.411 318.300 C 113.339 321.146,114.438 322.000,115.175 322.000 C 115.613 322.000,116.152 322.336,116.372 322.747 C 116.592 323.158,117.323 323.605,117.998 323.740 C 118.672 323.874,119.630 324.423,120.126 324.957 C 120.621 325.492,121.560 325.991,122.211 326.065 C 123.029 326.158,123.554 326.534,123.911 327.285 C 124.272 328.041,124.844 328.447,125.801 328.627 C 126.556 328.768,127.639 329.315,128.208 329.842 C 128.776 330.369,129.682 330.800,130.221 330.800 C 130.759 330.800,131.560 331.160,132.000 331.600 C 132.440 332.040,132.984 332.400,133.209 332.400 C 133.433 332.400,134.288 332.840,135.109 333.377 C 135.929 333.914,137.500 334.572,138.600 334.840 C 139.700 335.108,141.109 335.748,141.731 336.263 C 142.353 336.779,143.073 337.206,143.331 337.213 C 146.070 337.289,149.224 338.024,149.956 338.756 C 150.499 339.299,151.308 339.600,152.226 339.600 C 153.838 339.600,155.337 340.254,154.995 340.808 C 154.729 341.238,155.695 341.474,158.972 341.781 C 160.277 341.903,161.784 342.291,162.322 342.643 C 163.071 343.134,163.513 343.186,164.216 342.865 C 164.967 342.523,165.230 342.589,165.667 343.229 C 166.127 343.904,166.799 344.035,170.592 344.188 C 173.941 344.323,175.092 344.511,175.437 344.982 C 175.934 345.662,178.000 345.838,178.000 345.200 C 178.000 344.393,180.357 344.772,180.830 345.656 C 181.277 346.491,181.418 346.504,186.744 346.192 C 193.672 345.787,199.520 345.783,206.600 346.182 C 212.003 346.485,212.227 346.467,212.962 345.648 C 213.736 344.786,215.600 344.470,215.600 345.200 C 215.600 345.823,218.058 345.670,218.556 345.017 C 218.866 344.609,220.238 344.351,223.117 344.158 C 226.633 343.923,227.296 343.769,227.654 343.099 C 227.983 342.484,228.337 342.367,229.294 342.559 C 229.965 342.693,230.732 342.622,230.998 342.401 C 231.265 342.180,232.877 341.882,234.583 341.738 C 237.046 341.529,237.859 341.293,238.541 340.587 C 239.046 340.065,240.140 339.588,241.196 339.429 C 242.183 339.281,243.353 338.833,243.796 338.432 C 244.307 337.969,245.535 337.612,247.172 337.451 C 248.988 337.272,249.960 336.964,250.483 336.403 C 250.889 335.967,251.622 335.528,252.111 335.428 C 255.708 334.692,257.200 334.279,257.200 334.021 C 257.200 333.856,257.915 333.399,258.788 333.005 C 259.662 332.611,260.680 331.954,261.050 331.545 C 261.421 331.135,262.158 330.800,262.688 330.800 C 263.726 330.800,265.154 330.158,265.800 329.400 C 266.020 329.142,266.965 328.714,267.900 328.450 C 268.879 328.172,269.600 327.726,269.600 327.398 C 269.600 326.755,270.803 326.000,271.828 326.000 C 272.202 326.000,272.928 325.547,273.442 324.992 C 273.956 324.438,274.905 323.879,275.553 323.749 C 276.200 323.620,276.811 323.201,276.911 322.818 C 277.013 322.429,277.634 322.013,278.316 321.877 C 278.989 321.742,280.099 321.085,280.784 320.416 C 281.468 319.747,282.262 319.200,282.550 319.200 C 282.837 319.200,283.269 318.767,283.510 318.237 C 283.776 317.654,284.432 317.169,285.174 317.006 C 285.848 316.858,286.400 316.500,286.400 316.212 C 286.400 315.923,286.854 315.573,287.410 315.433 C 288.507 315.158,291.005 312.860,292.121 311.100 C 292.546 310.429,293.172 310.000,293.724 310.000 C 294.305 310.000,295.474 309.133,296.988 307.578 L 299.347 305.157 298.603 303.878 C 298.194 303.175,296.361 301.121,294.529 299.313 C 292.698 297.506,291.200 295.862,291.200 295.660 C 291.200 295.458,290.827 295.196,290.370 295.076 C 289.914 294.957,289.443 294.486,289.324 294.030 C 289.204 293.573,288.954 293.200,288.766 293.200 C 288.267 293.200,282.400 287.326,282.400 286.826 C 282.400 286.592,282.175 286.397,281.900 286.393 C 281.353 286.386,278.002 283.071,277.997 282.533 C 277.996 282.350,277.456 281.893,276.797 281.519 C 276.139 281.144,275.600 280.559,275.600 280.219 C 275.600 279.878,275.406 279.600,275.168 279.600 C 274.931 279.600,273.941 278.804,272.968 277.832 C 271.996 276.859,271.200 275.869,271.200 275.632 C 271.200 275.394,271.008 275.200,270.774 275.200 C 270.246 275.200,264.400 269.319,264.400 268.787 C 264.400 268.574,264.197 268.400,263.948 268.400 C 263.332 268.400,258.000 262.821,258.000 262.177 C 258.000 261.893,257.568 261.148,257.040 260.521 C 255.533 258.730,255.511 256.169,256.987 254.576 C 257.530 253.990,258.083 253.168,258.216 252.749 C 258.567 251.645,260.938 250.800,263.686 250.800 C 265.465 250.800,266.332 250.597,267.087 250.003 C 267.939 249.333,268.682 249.210,271.752 249.235 C 276.066 249.270,277.422 248.992,278.890 247.773 C 279.490 247.275,280.525 246.748,281.190 246.602 C 281.856 246.456,282.400 246.101,282.400 245.814 C 282.400 245.263,282.984 244.063,284.062 242.400 C 284.418 241.850,284.930 240.410,285.200 239.200 C 285.470 237.990,285.940 236.601,286.245 236.114 C 287.100 234.749,286.978 229.519,286.048 227.684 C 285.634 226.868,285.176 225.478,285.029 224.595 C 284.693 222.579,279.730 217.079,277.576 216.338 C 276.819 216.077,275.493 215.400,274.630 214.832 C 272.235 213.259,262.587 213.300,260.892 214.890 C 260.292 215.454,259.197 216.043,258.459 216.199 C 256.476 216.617,252.526 220.691,252.177 222.678 C 252.030 223.515,251.650 224.615,251.331 225.122 C 250.850 225.889,250.833 226.405,251.232 228.188 C 251.676 230.171,251.648 230.413,250.856 231.420 C 250.139 232.331,250.000 233.042,250.000 235.799 C 250.000 238.853,249.914 239.199,248.800 240.600 C 248.140 241.431,247.600 242.262,247.600 242.447 C 247.600 242.633,247.163 242.894,246.629 243.028 C 246.096 243.162,245.348 243.616,244.967 244.036 C 244.109 244.985,241.523 245.072,240.781 244.177 C 240.496 243.834,239.709 243.321,239.032 243.037 C 237.784 242.514,230.802 235.997,230.797 235.351 C 230.796 235.158,230.256 234.693,229.597 234.319 C 228.939 233.944,228.400 233.359,228.400 233.019 C 228.400 232.678,228.122 232.400,227.781 232.400 C 227.441 232.400,226.856 231.861,226.481 231.203 C 226.107 230.544,225.654 230.004,225.476 230.003 C 225.007 229.999,212.800 217.665,212.800 217.195 C 212.800 216.978,212.623 216.800,212.407 216.800 C 211.919 216.800,199.200 204.195,199.200 203.712 C 199.200 202.865,196.465 202.271,195.400 202.886 " stroke="none" fill="#334e5c" fill-rule="evenodd"></path></g></svg>